%TF.GenerationSoftware,Altium Limited,Altium Designer,23.8.1 (32)*%
G04 Layer_Color=5220458*
%FSLAX26Y26*%
%MOIN*%
%TF.SameCoordinates,6B68F3FB-407B-423E-831D-AB1AF3CCE0D2*%
%TF.FilePolarity,Positive*%
%TF.FileFunction,Other,Bottom_Tenting*%
%TF.Part,Single*%
G01*
G75*
%TA.AperFunction,SMDPad,CuDef*%
%ADD113C,0.028000*%
D113*
X450000Y800000D02*
D03*
Y900000D02*
D03*
X100000Y-19690D02*
D03*
X-100000Y-39370D02*
D03*
X-160000Y-181496D02*
D03*
Y93504D02*
D03*
X-53150Y-221850D02*
D03*
X50000D02*
D03*
X-275000Y-250000D02*
D03*
X-53150Y196850D02*
D03*
X50000D02*
D03*
X-436024Y213976D02*
D03*
X-589566Y50000D02*
D03*
X-487204D02*
D03*
X-450000D02*
D03*
X-1172980Y-600000D02*
D03*
X-1270000Y-675000D02*
D03*
X1270000D02*
D03*
X889520Y-602500D02*
D03*
X616920Y-640000D02*
D03*
X656082Y-715550D02*
D03*
X-800000D02*
D03*
X-754146Y-640000D02*
D03*
X-414330D02*
D03*
X-120630Y-716000D02*
D03*
X-460000Y-715550D02*
D03*
X-66646Y-640000D02*
D03*
X277104D02*
D03*
X225000Y-716000D02*
D03*
X1240963Y529330D02*
D03*
X-450000Y1000000D02*
D03*
Y900000D02*
D03*
X-350000Y324686D02*
D03*
X-160000Y156496D02*
D03*
X-241168D02*
D03*
X-436024Y249990D02*
D03*
X-1386610Y-50000D02*
D03*
X-1490000Y300000D02*
D03*
X-1850000Y258270D02*
D03*
X-1450000Y33270D02*
D03*
X-1613390Y175000D02*
D03*
X-1213390Y-50000D02*
D03*
X1172980Y-900000D02*
D03*
X-381496Y-308090D02*
D03*
X-290000Y-44606D02*
D03*
Y-176102D02*
D03*
X-53150Y125000D02*
D03*
X50000D02*
D03*
X-19690Y26890D02*
D03*
X290000Y30000D02*
D03*
X110000Y910568D02*
D03*
X1760000Y738326D02*
D03*
X1701870Y650000D02*
D03*
X1760000Y698685D02*
D03*
X1737008Y875000D02*
D03*
X-175000Y840000D02*
D03*
X-100000Y791043D02*
D03*
X-250000D02*
D03*
X1168580Y930000D02*
D03*
X102254Y-640000D02*
D03*
X442254D02*
D03*
X792254D02*
D03*
X-247746D02*
D03*
X-587746D02*
D03*
X-512796Y-220482D02*
D03*
X-1020000Y575000D02*
D03*
Y650000D02*
D03*
X-1200000Y1020000D02*
D03*
X-480000Y940000D02*
D03*
X-545670Y596760D02*
D03*
Y650000D02*
D03*
Y700000D02*
D03*
X-740000Y900000D02*
D03*
X-433347Y301182D02*
D03*
X100000Y19690D02*
D03*
X-780118Y860000D02*
D03*
X-1160000Y75000D02*
D03*
X350000Y250000D02*
D03*
X-1140000Y860000D02*
D03*
X-997320D02*
D03*
X-1579685Y642362D02*
D03*
X-1260000Y670000D02*
D03*
X-1410000Y595118D02*
D03*
X-1170770Y0D02*
D03*
X-439728Y800000D02*
D03*
X-962795Y451181D02*
D03*
X-967520Y312800D02*
D03*
X-1228500Y522685D02*
D03*
X-909252Y451181D02*
D03*
X-1675000Y425900D02*
D03*
X-1650000Y400000D02*
D03*
X-420000Y550000D02*
D03*
Y450000D02*
D03*
X-1620096Y786526D02*
D03*
X-1711181Y649189D02*
D03*
X-890000Y-790000D02*
D03*
X-550000Y-670000D02*
D03*
X-391106Y213976D02*
D03*
X-360777Y198789D02*
D03*
X510000Y-860000D02*
D03*
X-823189Y269485D02*
D03*
Y470000D02*
D03*
X810000Y-769685D02*
D03*
X-716438Y-577500D02*
D03*
X-630000Y-590000D02*
D03*
%TF.MD5,3c07289f655aa03c06c8ed4dd36d6a5b*%
M02*
