M48
;Layer_Color=9474304
;FILE_FORMAT=2:5
INCH,LZ
;TYPE=PLATED
T01F00S00C0.01600
T02F00S00C0.02953
T03F00S00C0.03543
T04F00S00C0.03937
T05F00S00C0.06300
T06F00S00C0.09843
;TYPE=NON_PLATED
T07F00S00C0.03543
T08F00S00C0.03937
%
T01
X-0127Y-00675
X-0117298Y-006
X-0075415Y-0064
X-0071644Y-005775
X-0063Y-0059
X-0058775Y-0064
X-0055Y-0067
X-0046Y-0071555
X-008
X-0089Y-0079
X-005128Y-0022048
X-004872Y0005
X-0045
X-0058957
X-0082319Y0026948
X-0096752Y003128
X-0116Y00075
X-0117077Y0
X-0121339Y-0005
X-0138661
X-0145Y0003327
X-0161339Y00175
X-0149Y003
X-0165Y004
X-01675Y004259
X-0185Y0025827
X-0043602Y0024999
Y0021398
X-0039111
X-0036078Y0019879
X-0035Y0032469
X-0043335Y0030118
X-0024117Y001565
X-0016
Y000935
X-0005315Y00125
Y0019685
X0005
Y00125
X001Y0001969
Y-0001969
X-0001969Y0002689
X-001Y-0003937
X-0029Y-0004461
Y-001761
X-00275Y-0025
X-003815Y-0030809
X-0016Y-001815
X-0005315Y-0022185
X0005
X0010225Y-0064
X-0006665
X-0012063Y-00716
X-0024775Y-0064
X-0041433
X002771
X00225Y-00716
X0044225Y-0064
X0055Y-0068
X0061692Y-0064
X0065608Y-0071555
X0081Y-0076968
X0079225Y-0064
X0088952Y-006025
X0051Y-0086
X0029Y0003
X0035Y0025
X0127Y-00675
X0117298Y-009
X0124096Y0052933
X0116858Y0093
X0173701Y00875
X0176Y0073833
Y0069868
X0170187Y0065
X0045Y008
Y009
X0011Y0091057
X-001Y0079104
X-00175Y0084
X-0025Y0079104
X-0042Y0055
Y0045
X-0054567Y0059676
Y0065
Y007
X-0043973Y008
X-0045Y009
X-0048Y0094
X-0045Y01
X-0074Y009
X-0078012Y0086
X-0099732
X-0114
X-012Y0102
X-0126Y0067
X-012285Y0052268
X-0141Y0059512
X-0157968Y0064236
X-0171118Y0064919
X-016201Y0078653
X-0102Y0065
Y00575
X-009628Y0045118
X-0090925
X-0082319Y0047
T02
X-01575Y0091941
X-01475
X-01375
T03
X0173433Y0009626
Y00175
Y0025374
X0145874Y0052933
X0138
X0130126
T04
X-0056Y-005275
X-0046
X-0036
X-0026
X-0016
X-0006
X0004
X0014
X0024
X0034
X0044
X0054
X0025Y-0105
X0015
X0005
X-0005
X-0015
X-0025
T05
X0134Y0083
X0154
Y0103
X0134
T06
X-00725Y-005025
X00725
Y010225
X-00725
T07
X0113906Y01055
X0102094
T08
X-0109968Y01055
X-0103472Y0106681
M30
