%TF.GenerationSoftware,Altium Limited,Altium Designer,23.8.1 (32)*%
G04 Layer_Physical_Order=1*
G04 Layer_Color=255*
%FSLAX26Y26*%
%MOIN*%
%TF.SameCoordinates,6B68F3FB-407B-423E-831D-AB1AF3CCE0D2*%
%TF.FilePolarity,Positive*%
%TF.FileFunction,Copper,L1,Top,Signal*%
%TF.Part,Single*%
G01*
G75*
%TA.AperFunction,SMDPad,CuDef*%
%ADD10R,0.059055X0.133858*%
%ADD11R,0.039370X0.137795*%
%ADD12R,0.082677X0.118110*%
%ADD13R,0.031496X0.062992*%
%ADD14R,0.027559X0.023622*%
%ADD15R,0.015748X0.019685*%
%ADD16R,0.046000X0.063000*%
%ADD17R,0.008000X0.025000*%
%ADD18R,0.063000X0.046000*%
%ADD19R,0.023622X0.027559*%
%ADD20R,0.051180X0.015750*%
%ADD21R,0.019685X0.015748*%
%ADD22R,0.039370X0.023000*%
%ADD23R,0.023622X0.043307*%
%ADD24R,0.109843X0.029134*%
%ADD25O,0.017716X0.094488*%
%ADD26R,0.039370X0.037402*%
%ADD27R,0.037402X0.057087*%
%ADD28R,0.039370X0.057087*%
%ADD29R,0.037402X0.039370*%
%TA.AperFunction,BGAPad,CuDef*%
%ADD30C,0.059055*%
%TA.AperFunction,SMDPad,CuDef*%
%ADD31O,0.140000X0.070000*%
G04:AMPARAMS|DCode=32|XSize=49.213mil|YSize=98.425mil|CornerRadius=12.303mil|HoleSize=0mil|Usage=FLASHONLY|Rotation=90.000|XOffset=0mil|YOffset=0mil|HoleType=Round|Shape=RoundedRectangle|*
%AMROUNDEDRECTD32*
21,1,0.049213,0.073819,0,0,90.0*
21,1,0.024606,0.098425,0,0,90.0*
1,1,0.024606,0.036909,0.012303*
1,1,0.024606,0.036909,-0.012303*
1,1,0.024606,-0.036909,-0.012303*
1,1,0.024606,-0.036909,0.012303*
%
%ADD32ROUNDEDRECTD32*%
%ADD33R,0.027560X0.059060*%
%ADD34R,0.019690X0.009840*%
%ADD35R,0.023000X0.039370*%
%ADD36R,0.035430X0.050000*%
%ADD37R,0.057087X0.039370*%
%ADD38R,0.009840X0.019690*%
%ADD39R,0.057087X0.037402*%
%ADD40R,0.057090X0.031500*%
%ADD41R,0.031496X0.035433*%
%ADD42R,0.039370X0.031500*%
%TA.AperFunction,Conductor*%
%ADD43C,0.016000*%
%ADD44C,0.013800*%
%ADD45C,0.020000*%
%ADD46C,0.006000*%
%ADD47C,0.013790*%
%ADD48C,0.030000*%
%ADD49C,0.010000*%
%ADD50C,0.012000*%
%TA.AperFunction,ComponentPad*%
%ADD51C,0.049213*%
%ADD52R,0.049213X0.049213*%
%ADD53C,0.100000*%
%ADD54C,0.070866*%
G04:AMPARAMS|DCode=55|XSize=70.866mil|YSize=70.866mil|CornerRadius=8.858mil|HoleSize=0mil|Usage=FLASHONLY|Rotation=180.000|XOffset=0mil|YOffset=0mil|HoleType=Round|Shape=RoundedRectangle|*
%AMROUNDEDRECTD55*
21,1,0.070866,0.053150,0,0,180.0*
21,1,0.053150,0.070866,0,0,180.0*
1,1,0.017716,-0.026575,0.026575*
1,1,0.017716,0.026575,0.026575*
1,1,0.017716,0.026575,-0.026575*
1,1,0.017716,-0.026575,-0.026575*
%
%ADD55ROUNDEDRECTD55*%
%ADD56O,0.118120X0.059060*%
%ADD57O,0.059060X0.118120*%
%ADD58C,0.039370*%
%ADD59C,0.035430*%
%TA.AperFunction,ViaPad*%
%ADD60C,0.028000*%
%ADD61C,0.098425*%
D10*
X800630Y-996063D02*
D03*
X379370D02*
D03*
X-379370Y-996063D02*
D03*
X-800630D02*
D03*
X1794390Y511949D02*
D03*
X1530610D02*
D03*
D11*
X708110Y-769685D02*
D03*
X471890D02*
D03*
X629370D02*
D03*
X550630D02*
D03*
X-471890Y-769685D02*
D03*
X-708110D02*
D03*
X-550630D02*
D03*
X-629370D02*
D03*
X1701870Y738327D02*
D03*
X1623130D02*
D03*
D12*
X-983189Y137087D02*
D03*
X-733189D02*
D03*
D13*
X-882795Y22913D02*
D03*
X-833583Y22913D02*
D03*
D14*
X-823189Y439370D02*
D03*
Y400000D02*
D03*
Y340360D02*
D03*
Y300990D02*
D03*
X-1479370Y482315D02*
D03*
Y521685D02*
D03*
X-1262800Y449685D02*
D03*
Y410315D02*
D03*
X-1579685Y676567D02*
D03*
Y715937D02*
D03*
X-1180000Y483315D02*
D03*
Y522685D02*
D03*
X-1310000Y449685D02*
D03*
Y410315D02*
D03*
X-1309060Y330315D02*
D03*
Y369685D02*
D03*
X-1262800Y330315D02*
D03*
Y369685D02*
D03*
X-1541299Y715937D02*
D03*
X-1541299Y676567D02*
D03*
D15*
X-905748Y395478D02*
D03*
X-874252D02*
D03*
X-905748Y346265D02*
D03*
X-874252D02*
D03*
D16*
X-1120000Y425000D02*
D03*
X-1180000D02*
D03*
D17*
X-1410000Y510000D02*
D03*
X-1357601Y755937D02*
D03*
X-1260000D02*
D03*
D18*
X-1410000Y540000D02*
D03*
Y480000D02*
D03*
X-1357601Y725937D02*
D03*
Y785937D02*
D03*
X-1260000Y725937D02*
D03*
Y785937D02*
D03*
X-1465590Y725937D02*
D03*
Y785937D02*
D03*
D19*
X-1659409Y649252D02*
D03*
X-1620039D02*
D03*
D20*
X-1013390Y338390D02*
D03*
Y312800D02*
D03*
Y287200D02*
D03*
Y261610D02*
D03*
X-1186610D02*
D03*
Y287200D02*
D03*
Y312800D02*
D03*
Y338390D02*
D03*
D21*
X-1620039Y727748D02*
D03*
Y696252D02*
D03*
D22*
X-1013390Y451181D02*
D03*
Y388189D02*
D03*
X-290000Y-144606D02*
D03*
Y-81614D02*
D03*
X50000Y156496D02*
D03*
X-53150D02*
D03*
Y93504D02*
D03*
X50000D02*
D03*
D23*
X-1542283Y484882D02*
D03*
X-1579685D02*
D03*
X-1617087D02*
D03*
Y595118D02*
D03*
X-1579685D02*
D03*
X-1542283D02*
D03*
D24*
X-619882Y600000D02*
D03*
Y750000D02*
D03*
Y800000D02*
D03*
X-780118Y600000D02*
D03*
Y650000D02*
D03*
Y700000D02*
D03*
Y750000D02*
D03*
Y800000D02*
D03*
X-619882Y650000D02*
D03*
Y700000D02*
D03*
D25*
X-512796Y-137795D02*
D03*
X-461614D02*
D03*
X-384842Y137795D02*
D03*
X-410434D02*
D03*
X-436024D02*
D03*
X-461614D02*
D03*
X-487204D02*
D03*
X-512796D02*
D03*
X-538386D02*
D03*
X-563976D02*
D03*
X-589566D02*
D03*
X-615158D02*
D03*
X-384842Y-137795D02*
D03*
X-615158D02*
D03*
X-563976D02*
D03*
X-410434D02*
D03*
X-538386D02*
D03*
X-589566D02*
D03*
X-436024D02*
D03*
X-487204D02*
D03*
D26*
X1800000Y856496D02*
D03*
Y793504D02*
D03*
X-496299Y238190D02*
D03*
X-560275Y301182D02*
D03*
Y238190D02*
D03*
X-496299Y301182D02*
D03*
X-53150Y-118504D02*
D03*
Y-181496D02*
D03*
X50000Y-118504D02*
D03*
Y-181496D02*
D03*
D27*
X1631004Y875000D02*
D03*
X-701496Y900000D02*
D03*
X-981496Y650000D02*
D03*
Y575000D02*
D03*
D28*
X1693996Y875000D02*
D03*
X-638504Y900000D02*
D03*
X-918504Y575000D02*
D03*
Y650000D02*
D03*
D29*
X1800000Y950000D02*
D03*
X1737008D02*
D03*
X-1038504Y860000D02*
D03*
X-1101496D02*
D03*
D30*
X50000Y1040000D02*
D03*
X-50000D02*
D03*
X50000Y940000D02*
D03*
X-50000D02*
D03*
X50000Y840000D02*
D03*
X-50000D02*
D03*
X50000Y740000D02*
D03*
X-50000D02*
D03*
D31*
X350000Y400000D02*
D03*
Y500000D02*
D03*
Y600000D02*
D03*
Y700000D02*
D03*
Y800000D02*
D03*
Y900000D02*
D03*
Y1000000D02*
D03*
X-350000Y400000D02*
D03*
Y500000D02*
D03*
Y600000D02*
D03*
Y1000000D02*
D03*
Y900000D02*
D03*
Y800000D02*
D03*
Y700000D02*
D03*
D32*
X-175000Y716043D02*
D03*
Y791043D02*
D03*
D33*
X1168580Y986100D02*
D03*
X1050470D02*
D03*
X991420D02*
D03*
D34*
X53150Y19690D02*
D03*
Y-19690D02*
D03*
X-53150Y-39370D02*
D03*
Y-19690D02*
D03*
Y39370D02*
D03*
Y19690D02*
D03*
Y0D02*
D03*
X53150Y-39370D02*
D03*
Y0D02*
D03*
Y39370D02*
D03*
D35*
X-318504Y-250000D02*
D03*
X-381496D02*
D03*
D36*
X-1162680Y1019570D02*
D03*
X-997320D02*
D03*
D37*
X-160000Y-11496D02*
D03*
Y-68504D02*
D03*
D38*
X-19690Y-53150D02*
D03*
X0D02*
D03*
X19690D02*
D03*
Y53150D02*
D03*
X0D02*
D03*
X-19690D02*
D03*
D39*
X-160000Y51496D02*
D03*
Y-131496D02*
D03*
D40*
X-1212870Y1094370D02*
D03*
X-947130D02*
D03*
D41*
X1012598Y821260D02*
D03*
X975196Y900000D02*
D03*
X1050000D02*
D03*
D42*
X1223700Y1011690D02*
D03*
Y1098310D02*
D03*
X936300Y1011690D02*
D03*
Y1098310D02*
D03*
D43*
X-1475000Y795347D02*
Y919409D01*
X-1471547Y960000D02*
X-1184373D01*
X-1471547Y922862D02*
Y960000D01*
X-1579685Y719748D02*
Y914725D01*
X-1575000Y919409D01*
X-1375000Y800937D02*
Y919409D01*
X-1475000D02*
X-1471547Y922862D01*
X-1475000Y795347D02*
X-1465590Y785937D01*
X-1360000D02*
X-1357601D01*
X-1375000Y800937D02*
X-1360000Y785937D01*
X-1579685Y719748D02*
X-1575874Y715937D01*
X-1262800Y449685D02*
Y553627D01*
X-1253427Y563000D01*
X-1184373D01*
X-1175000Y572373D01*
Y950627D01*
X-1184373Y960000D02*
X-1175000Y950627D01*
X629370Y-769685D02*
X708110D01*
X550315Y-769370D02*
Y-680315D01*
Y-769370D02*
X550630Y-769685D01*
X550000Y-680000D02*
X550315Y-680315D01*
X-1575874Y715937D02*
X-1575000D01*
X-1579685D02*
X-1575874D01*
X-1260000Y785937D02*
X-1210768D01*
X-1357601D02*
X-1260000D01*
X-796409Y280889D02*
X-796189Y280669D01*
Y258301D02*
Y280669D01*
X-833583Y22913D02*
Y220907D01*
X-796189Y258301D01*
X-821220Y340360D02*
X-806661Y325801D01*
X-823189Y340360D02*
X-821220D01*
X-796409Y280889D02*
Y318186D01*
X-806661Y325801D02*
X-804025D01*
X-796409Y318186D01*
X-874252Y344548D02*
Y346265D01*
X-823189Y439370D02*
Y470000D01*
Y269485D02*
Y300990D01*
X-874252Y344548D02*
X-870064Y340360D01*
X-823189D01*
X-550315Y-769370D02*
Y-670315D01*
X-550630Y-769685D02*
X-550315Y-769370D01*
Y-670315D02*
X-550000Y-670000D01*
X-890000Y-790000D02*
Y-434853D01*
X-880147Y-425000D01*
X-1620068Y727776D02*
X-1620039Y727748D01*
X-1620096Y786526D02*
X-1620068Y786498D01*
Y727776D02*
Y786498D01*
X-1750000Y359373D02*
X-1740627Y350000D01*
X-1395983D02*
X-1386610Y340627D01*
Y209373D02*
Y340627D01*
X-1740627Y350000D02*
X-1395983D01*
X-1750000Y359373D02*
Y512312D01*
X-1740627Y521685D01*
X-1617087D01*
X-1386610Y209373D02*
X-1377237Y200000D01*
X-1075000D01*
Y287200D01*
X-1350000Y261610D02*
Y725937D01*
X-1228500Y522685D02*
X-1180000D01*
Y338390D02*
Y425000D01*
Y483315D01*
X-1013390Y312800D02*
X-967520D01*
X-1075000Y388189D02*
X-1013390D01*
X-1075000Y287200D02*
Y388189D01*
Y287200D02*
X-1013390D01*
Y451181D02*
X-962795D01*
X-1120000Y500000D02*
X-456500D01*
X-1120000Y425000D02*
Y500000D01*
X-1357601Y725937D02*
X-1350000D01*
X-1186610Y338390D02*
X-1180000D01*
X-1310000Y449685D02*
Y590627D01*
X-1300627Y600000D01*
X-1210768D01*
X-1201395Y609373D01*
Y776565D01*
X-1210768Y785937D02*
X-1201395Y776565D01*
X-1262800Y369685D02*
Y410315D01*
X-1309060Y369685D02*
Y410315D01*
X-1310000D02*
X-1309060D01*
X-1479370Y482315D02*
X-1410000D01*
Y480000D02*
Y482315D01*
X-1541299Y715937D02*
X-1465590D01*
Y725937D01*
X-1575000Y715937D02*
X-1541299Y715937D01*
Y595118D02*
X-1541299Y676567D01*
X-1542283Y595118D02*
X-1541299D01*
X-1617087Y521685D02*
Y595118D01*
Y521685D02*
X-1479370D01*
X-1541000Y483599D02*
X-1480653D01*
X-1542283Y484882D02*
X-1541000Y483599D01*
X-1480653D02*
X-1479370Y482315D01*
X-1620039Y649252D02*
Y696252D01*
X-1618563Y647776D02*
X-1618563Y596595D01*
X-1617087Y595118D01*
X-1620039Y649252D02*
X-1618563Y647776D01*
X-1140000Y860000D02*
X-1101496D01*
X-560275Y301182D02*
X-496299D01*
X-740000Y900000D02*
X-701496D01*
X-618262Y598380D02*
X-547290D01*
X-545670Y596760D01*
X-619882Y600000D02*
X-618262Y598380D01*
X-1020000Y575000D02*
X-981496D01*
X-496577Y-425000D02*
X-485796Y-414219D01*
X-487204Y-207890D02*
Y-137795D01*
X-485796Y-414219D02*
Y-209298D01*
X-487204Y-207890D02*
X-485796Y-209298D01*
X-880147Y-425000D02*
X-496577D01*
X-384514Y-144606D02*
Y-138124D01*
Y-149536D02*
Y-144606D01*
X-384842D02*
Y-137795D01*
Y-149207D02*
Y-144606D01*
X-384514D02*
X-290000D01*
X-384842D02*
X-384514D01*
X-290000Y-176102D02*
Y-144606D01*
Y-81614D02*
Y-44606D01*
X-381496Y-308090D02*
Y-250000D01*
X1701870Y793504D02*
X1800000D01*
X-461614Y64861D02*
X-450000Y53247D01*
X-461614Y64861D02*
Y137795D01*
X-450000Y50000D02*
Y53247D01*
X-487204Y50000D02*
Y137795D01*
X-589566Y50000D02*
Y137795D01*
X-487204D02*
X-461614D01*
X-563648Y138123D02*
Y234817D01*
X-563976Y137795D02*
X-563648Y138123D01*
Y234817D02*
X-560275Y238190D01*
X50000Y156496D02*
Y196850D01*
X-53150Y156496D02*
Y196850D01*
Y156496D02*
X50000D01*
X-318504Y-250000D02*
X-275000D01*
X-384514Y-149536D02*
X-384049Y-150000D01*
X-384842Y-149207D02*
X-384514Y-149536D01*
Y-246982D02*
Y-149536D01*
X-384842Y-137795D02*
X-384514Y-138124D01*
Y-246982D02*
X-381496Y-250000D01*
D44*
X-629685Y-769370D02*
Y-590315D01*
Y-769370D02*
X-629370Y-769685D01*
X-630000Y-590000D02*
X-629685Y-590315D01*
X-713721Y-764074D02*
Y-580217D01*
Y-764074D02*
X-708110Y-769685D01*
X-716438Y-577500D02*
X-713721Y-580217D01*
X-960000Y-80000D02*
X-760000D01*
X-983189Y-56811D02*
X-960000Y-80000D01*
X-983189Y-56811D02*
Y137087D01*
X-760000Y-80000D02*
X-733189Y-53189D01*
Y137087D01*
X-150000Y-1050000D02*
Y-920000D01*
X-941916Y-900000D02*
X-170000D01*
X-150000Y-920000D01*
X471890Y-851916D02*
Y-769685D01*
X479974Y-860000D02*
X510000D01*
X471890Y-851916D02*
X479974Y-860000D01*
X-770919Y232600D02*
Y391916D01*
X-823189Y400000D02*
X-779003D01*
X-770919Y391916D01*
X-790000Y-30000D02*
Y213519D01*
X-770919Y232600D01*
X-871698Y400000D02*
X-823189D01*
X-867047Y-40000D02*
X-800000D01*
X-790000Y-30000D01*
X-882795Y-24252D02*
Y22913D01*
Y-24252D02*
X-867047Y-40000D01*
X-874252Y397446D02*
X-871698Y400000D01*
X-874252Y395478D02*
Y397446D01*
X-938189Y385635D02*
X-928347Y395478D01*
X-905748D01*
X-938189Y376777D02*
Y385635D01*
X-975601Y339365D02*
X-938189Y376777D01*
X-1012415Y339365D02*
X-975601D01*
X-1013390Y338390D02*
X-1012415Y339365D01*
X-941620Y328319D02*
X-926617Y343322D01*
X-941620Y302072D02*
Y328319D01*
X-926617Y343322D02*
X-906722D01*
X-905748Y344296D01*
Y346265D01*
X-941851Y301842D02*
X-941620Y302072D01*
X-941851Y295075D02*
Y301842D01*
X-1012415Y262585D02*
X-974341D01*
X-1013390Y261610D02*
X-1012415Y262585D01*
X-974341D02*
X-941851Y295075D01*
X510000Y-860000D02*
X511811D01*
X-12667Y-991916D02*
Y-283084D01*
X-211876Y-275000D02*
X-20751D01*
X-50000Y-1050000D02*
Y-1000000D01*
X-20751D01*
X-12667Y-991916D01*
X-20751Y-275000D02*
X-12667Y-283084D01*
X-409685Y138544D02*
Y191555D01*
X-391106Y210133D02*
Y213976D01*
X-410434Y137795D02*
X-409685Y138544D01*
Y191555D02*
X-391106Y210133D01*
X-160000Y-68504D02*
X-34079D01*
X-168858D02*
X-160000D01*
X-950000Y-891916D02*
X-941916Y-900000D01*
X-950000Y-891916D02*
Y-390000D01*
X1631004Y888543D02*
Y950000D01*
X350000Y250000D02*
Y400000D01*
X-420000Y450000D02*
X-350000D01*
Y500000D01*
X-420000Y550000D02*
X-350000D01*
Y600000D01*
X-456500Y500000D02*
Y691916D01*
X-1650000Y400000D02*
X-1579685D01*
X-1639193Y425821D02*
X-1625170D01*
X-1617087Y433905D02*
Y484882D01*
X-1639272Y425900D02*
X-1639193Y425821D01*
X-1625170D02*
X-1617087Y433905D01*
X-1675000Y425900D02*
X-1639272D01*
X-1309060Y261610D02*
X-1186610D01*
X-1309060D02*
Y330315D01*
X-1350000Y261610D02*
X-1309060D01*
X-1262800Y287200D02*
Y330315D01*
Y287200D02*
X-1186610D01*
X-456500Y361584D02*
Y500000D01*
X-439728Y800000D02*
X-350000D01*
X-1579685Y400000D02*
Y484882D01*
X-780118Y800000D02*
Y860000D01*
X-1038504D02*
X-997320D01*
X-1038504D02*
Y1019570D01*
X-997320D01*
X-780118Y650000D02*
X-704122D01*
X-696038Y568084D02*
Y641916D01*
X-704122Y650000D02*
X-696038Y641916D01*
X-687955Y560000D02*
X-523372D01*
X-696038Y568084D02*
X-687955Y560000D01*
X-56900Y946900D02*
X-50000Y940000D01*
X-469257Y946900D02*
X-56900D01*
X162893Y692893D02*
X342893D01*
X150000Y-266916D02*
Y680000D01*
X162893Y692893D01*
X-851916Y700000D02*
X-780118D01*
X-860000Y708084D02*
X-851916Y700000D01*
X-860000Y708084D02*
Y1094329D01*
X-480000Y806628D02*
X-439728Y846900D01*
X-480000Y576785D02*
Y806628D01*
X-518363Y538422D02*
X-480000Y576785D01*
X-505900Y577472D02*
Y1030116D01*
X-523372Y560000D02*
X-505900Y577472D01*
Y1030116D02*
X-486016Y1050000D01*
X-696038Y750000D02*
Y831916D01*
X-687955Y840000D01*
X-648084D02*
X-640000Y848084D01*
Y1075570D01*
X-687955Y840000D02*
X-648084D01*
X-780118Y750000D02*
X-696038D01*
X-780118Y538422D02*
X-518363D01*
X-897635D02*
X-780118D01*
Y600000D01*
X-918504Y575000D02*
X-905719Y562215D01*
Y546506D02*
X-897635Y538422D01*
X-905719Y546506D02*
Y562215D01*
X-439728Y846900D02*
X-279990D01*
X-486016Y1050000D02*
X-118084D01*
X-279990Y846900D02*
X-246890Y880000D01*
X-456500Y691916D02*
X-448416Y700000D01*
X-468084Y350000D02*
X-456500Y361584D01*
X-448416Y700000D02*
X-350000D01*
X-780118Y750000D02*
X-772451Y757667D01*
X-860000Y1094329D02*
X-851916Y1102413D01*
X-12413D01*
X-480000Y940000D02*
X-476158D01*
X-469257Y946900D01*
X-615158Y350000D02*
X-468084D01*
X-85570Y1075570D02*
X-50000Y1040000D01*
X-640000Y1075570D02*
X-85570D01*
X-110000Y998084D02*
Y1041916D01*
X-118084Y1050000D02*
X-110000Y1041916D01*
X-246890Y880000D02*
X-90000D01*
X-50000Y840000D01*
X-101916Y990000D02*
X-8084D01*
X-110000Y998084D02*
X-101916Y990000D01*
X-8084D02*
X0Y981916D01*
Y840000D02*
Y981916D01*
X-12413Y1102413D02*
X50000Y1040000D01*
X0Y840000D02*
X50000D01*
X-951155Y1098395D02*
X-947130Y1094370D01*
X-1208845Y1098395D02*
X-951155D01*
X-1212870Y1094370D02*
X-1208845Y1098395D01*
X-1014947Y-220482D02*
X-563976D01*
X-1604518D02*
X-1014947D01*
Y-1100000D02*
Y-220482D01*
Y-1100000D02*
X50000D01*
Y-1050000D01*
X-538696Y-209754D02*
X-538386Y-209444D01*
X-538696Y-231210D02*
Y-209754D01*
X-538386Y-390000D02*
Y-231520D01*
Y-209444D02*
Y-137795D01*
X-538696Y-231210D02*
X-538386Y-231520D01*
X-950000Y-390000D02*
X-538386D01*
X-248084Y19685D02*
X-240000Y11601D01*
Y-23141D02*
X-221200Y-41941D01*
X-590315Y19685D02*
X-248084D01*
X-240000Y-23141D02*
Y11601D01*
X-221200Y-265676D02*
X-211876Y-275000D01*
X-221200Y-265676D02*
Y-41941D01*
X-208527Y-28026D02*
X-192400Y-44154D01*
X-231916Y-425000D02*
X-60000D01*
X-240000Y-416916D02*
X-231916Y-425000D01*
X-278232Y-11496D02*
X-240000Y-49728D01*
Y-416916D02*
Y-49728D01*
X-436024Y-19580D02*
X-427940Y-11496D01*
X-192400Y-44962D02*
X-168858Y-68504D01*
X-427940Y-11496D02*
X-278232D01*
X-436024Y-137795D02*
Y-19580D01*
X-192400Y-44962D02*
Y-44154D01*
X-60000Y-527500D02*
Y-425000D01*
X-410434Y-381916D02*
Y-137795D01*
X-461614Y-425000D02*
X-360000D01*
X-461614D02*
Y-137795D01*
X-512796Y-220482D02*
Y-137795D01*
X-410434Y-381916D02*
X-402350Y-390000D01*
X-260000D01*
Y-527500D02*
Y-390000D01*
X-360000Y-527500D02*
Y-425000D01*
X342893Y692893D02*
X350000Y700000D01*
X141916Y-275000D02*
X150000Y-266916D01*
X450000Y30000D02*
X460020Y40020D01*
Y601916D02*
X468104Y610000D01*
X1850000D01*
X460020Y40020D02*
Y601916D01*
X290000Y30000D02*
X450000D01*
X1850000Y610000D02*
Y856496D01*
X1800000D02*
X1850000D01*
X-590315Y-138545D02*
Y19685D01*
X-208527Y-28026D02*
Y591916D01*
X40000Y-527500D02*
Y-275000D01*
X141916D01*
X-563976Y-220482D02*
Y-137795D01*
X-410434Y50000D02*
X-209907D01*
X-249252Y77000D02*
X-241168Y85084D01*
Y156496D01*
X-376758Y77000D02*
X-249252D01*
X-410434Y50000D02*
Y137795D01*
X-1613390Y-211610D02*
X-1604518Y-220482D01*
X-1213390Y-193598D02*
Y-50000D01*
Y-193598D02*
X-1205306Y-201682D01*
X-603919D01*
X-1613390Y-211610D02*
Y175000D01*
X-603919Y-201682D02*
X-590315Y-188078D01*
Y-138545D01*
X-589566Y-137795D01*
X-475430Y250000D02*
X-436034D01*
X-436024Y249990D01*
X-496299Y238190D02*
X-484498Y249990D01*
X-475440D01*
X-475430Y250000D01*
X208084Y600000D02*
X350000D01*
X134099Y-300000D02*
X191916D01*
X200000Y-291916D02*
Y591916D01*
X191916Y-300000D02*
X200000Y-291916D01*
Y591916D02*
X208084Y600000D01*
X250000Y487365D02*
X258084Y495449D01*
X240000Y-527500D02*
X250000Y-517500D01*
Y487365D01*
X258084Y495449D02*
X346703D01*
X350000Y498746D01*
Y500000D01*
X134099Y-527500D02*
Y-300000D01*
Y-527500D02*
X140000D01*
X-241168Y156496D02*
Y491916D01*
X-384842Y85084D02*
X-376758Y77000D01*
X-384842Y85084D02*
Y137795D01*
X-216611Y600000D02*
X-208527Y591916D01*
X-249252Y500000D02*
X-241168Y491916D01*
X-350000Y500000D02*
X-249252D01*
X-350000Y600000D02*
X-216611D01*
X-100000Y-11496D02*
X-91246D01*
X-160000D02*
X-100000D01*
X-160000Y156496D02*
X-100000D01*
Y-11496D02*
Y156496D01*
X-350000Y324686D02*
Y400000D01*
X-615158Y238190D02*
X-560275D01*
X-615158D02*
Y350000D01*
X-450000Y900000D02*
X-350000D01*
X-450000Y1000000D02*
X-350000D01*
X1631004Y950000D02*
X1737008D01*
X1800000Y856496D02*
Y950000D01*
X-512047Y183041D02*
X-496299Y198789D01*
X-512796Y137795D02*
X-512047Y138544D01*
X-496299Y198789D02*
Y238190D01*
X-512047Y138544D02*
Y183041D01*
X-34079Y-68504D02*
X-19690Y-54115D01*
Y-53150D01*
X-83052Y-19690D02*
X-53150D01*
X-91246Y-11496D02*
X-83052Y-19690D01*
D45*
X708110Y-769685D02*
X810000D01*
X50000Y940000D02*
X60568D01*
X88470Y912099D02*
X108469D01*
X60568Y940000D02*
X88470Y912099D01*
X108469D02*
X110000Y910568D01*
X350000Y900000D02*
X450000D01*
D46*
X-384842Y137795D02*
Y175452D01*
X-361505Y198789D02*
X-360777D01*
D47*
X-384842Y175452D02*
X-361505Y198789D01*
D48*
X975196Y900000D02*
X975944Y899252D01*
Y879857D02*
Y899252D01*
X993518Y862283D02*
X1205668D01*
X975944Y879857D02*
X993518Y862283D01*
X1576004Y930000D02*
X1617461Y888543D01*
X1205668Y862283D02*
X1273385Y930000D01*
X1576004D01*
X1623130Y738326D02*
Y857284D01*
X1631004Y865158D02*
Y884842D01*
X1623130Y857284D02*
X1631004Y865158D01*
X1627303Y888543D02*
X1631004Y884842D01*
X1617461Y888543D02*
X1627303D01*
X156131Y749024D02*
Y1036130D01*
X-157426Y640000D02*
X47107D01*
X156131Y749024D01*
X480000Y1070000D02*
X518740Y1031260D01*
X156131Y1036130D02*
X190000Y1070000D01*
X480000D01*
X518740Y838834D02*
Y1031260D01*
X536314Y821260D02*
X1012598D01*
X518740Y838834D02*
X536314Y821260D01*
X-175000Y657574D02*
X-157426Y640000D01*
X-175000Y657574D02*
Y716043D01*
X-619882Y700000D02*
X-545670D01*
X-619882Y650000D02*
X-545670D01*
X-619882D02*
Y700000D01*
X-1200000Y1019570D02*
X-1162680D01*
X-1200000D02*
Y1020000D01*
X-1020000Y650000D02*
X-981496D01*
X1168580Y930000D02*
Y986100D01*
X1050470Y900000D02*
Y986100D01*
X1050000Y900000D02*
X1050470D01*
X975944Y902717D02*
Y918541D01*
X991420Y934017D02*
Y986100D01*
X975944Y918541D02*
X991420Y934017D01*
X-250000Y791043D02*
X-175000D01*
X-100000D01*
X-175000D02*
Y840000D01*
X1693996Y875000D02*
X1737008D01*
X1701870Y698685D02*
X1760000D01*
X1701870Y650000D02*
Y694000D01*
X1693996Y738326D02*
Y875000D01*
X1701870Y698685D02*
Y738326D01*
X1760000D01*
X1693996D02*
X1701870D01*
X50000Y-221850D02*
Y-181496D01*
X-53150Y-221850D02*
Y-181496D01*
X50000D01*
X-160000Y51496D02*
Y93504D01*
Y-181496D02*
Y-131496D01*
X350000Y800000D02*
X450000D01*
D49*
X-1659441Y649220D02*
X-1659409Y649252D01*
X-1711181Y649189D02*
X-1711149Y649220D01*
X-1659441D01*
X-1410000Y540000D02*
Y595118D01*
X-1260000Y670000D02*
Y725937D01*
X-1579685Y642362D02*
Y676567D01*
Y595118D02*
Y642362D01*
X23535Y-19690D02*
X53150D01*
X-15137D02*
X23535D01*
Y19690D01*
X53150D01*
X100000D01*
X-496299Y301182D02*
X-433347D01*
X-918504Y650000D02*
X-780118D01*
X-19690Y26890D02*
Y53150D01*
X-34737Y-39290D02*
X-15137Y-19690D01*
X-53150Y-39370D02*
X-53070Y-39290D01*
X-34737D01*
X-100000Y-39370D02*
X-53150D01*
X53150Y-19690D02*
X100000D01*
D50*
X-53150Y93504D02*
X44202D01*
X50000D02*
Y125000D01*
X-53150Y93504D02*
Y125000D01*
X-436024Y137795D02*
Y213976D01*
X19690Y-89178D02*
X49016Y-118504D01*
X19690Y-89178D02*
Y-53150D01*
X49016Y-118504D02*
X50000D01*
X-1080Y-66434D02*
Y-54230D01*
X-39465Y-105803D02*
Y-104819D01*
X-52166Y-118504D02*
X-39465Y-105803D01*
X-1080Y-54230D02*
X0Y-53150D01*
X-39465Y-104819D02*
X-1080Y-66434D01*
X-53150Y-118504D02*
X-52166D01*
X19690Y53150D02*
Y55915D01*
X20770Y56995D02*
X23535D01*
X38702Y72162D02*
Y88004D01*
X44202Y93504D02*
X50000D01*
X38702Y88004D02*
X44202Y93504D01*
X23535Y56995D02*
X38702Y72162D01*
X19690Y55915D02*
X20770Y56995D01*
X-53150Y39370D02*
Y93504D01*
D51*
X-1475000Y919409D02*
D03*
X-1375000D02*
D03*
D52*
X-1575000D02*
D03*
D53*
X1540000Y830000D02*
D03*
X1340000D02*
D03*
Y1030000D02*
D03*
X1540000D02*
D03*
D54*
X-250000Y-1050000D02*
D03*
X-150000D02*
D03*
X-50000D02*
D03*
X50000D02*
D03*
X150000D02*
D03*
X340000Y-527500D02*
D03*
X-60000D02*
D03*
X-260000D02*
D03*
X-460000D02*
D03*
X140000D02*
D03*
X40000D02*
D03*
X240000D02*
D03*
X-360000D02*
D03*
X-560000D02*
D03*
X-160000D02*
D03*
X440000D02*
D03*
D55*
X250000Y-1050000D02*
D03*
X540000Y-527500D02*
D03*
D56*
X1734330Y96260D02*
D03*
Y175000D02*
D03*
Y253740D02*
D03*
D57*
X1301260Y529330D02*
D03*
X1380000D02*
D03*
X1458740D02*
D03*
D58*
X-1099684Y1055000D02*
D03*
X-1034720Y1066810D02*
D03*
D59*
X1139060Y1055000D02*
D03*
X1020940D02*
D03*
D60*
X-630000Y-590000D02*
D03*
X-716438Y-577500D02*
D03*
X810000Y-769685D02*
D03*
X550000Y-680000D02*
D03*
X-823189Y470000D02*
D03*
Y269485D02*
D03*
X510000Y-860000D02*
D03*
X-360777Y198789D02*
D03*
X-391106Y213976D02*
D03*
X-550000Y-670000D02*
D03*
X-890000Y-790000D02*
D03*
X-1711181Y649189D02*
D03*
X-1620096Y786526D02*
D03*
X-420000Y450000D02*
D03*
Y550000D02*
D03*
X-1650000Y400000D02*
D03*
X-1675000Y425900D02*
D03*
X-909252Y451181D02*
D03*
X-1228500Y522685D02*
D03*
X-967520Y312800D02*
D03*
X-962795Y451181D02*
D03*
X-439728Y800000D02*
D03*
X-1170770Y0D02*
D03*
X-1410000Y595118D02*
D03*
X-1260000Y670000D02*
D03*
X-1579685Y642362D02*
D03*
X-997320Y860000D02*
D03*
X-1140000D02*
D03*
X350000Y250000D02*
D03*
X-1160000Y75000D02*
D03*
X-780118Y860000D02*
D03*
X100000Y19690D02*
D03*
X-433347Y301182D02*
D03*
X-740000Y900000D02*
D03*
X-545670Y700000D02*
D03*
Y650000D02*
D03*
Y596760D02*
D03*
X-480000Y940000D02*
D03*
X-1200000Y1020000D02*
D03*
X-1020000Y650000D02*
D03*
Y575000D02*
D03*
X-512796Y-220482D02*
D03*
X-587746Y-640000D02*
D03*
X-247746D02*
D03*
X792254D02*
D03*
X442254D02*
D03*
X102254D02*
D03*
X1168580Y930000D02*
D03*
X-250000Y791043D02*
D03*
X-100000D02*
D03*
X-175000Y840000D02*
D03*
X1737008Y875000D02*
D03*
X1760000Y698685D02*
D03*
X1701870Y650000D02*
D03*
X1760000Y738326D02*
D03*
X110000Y910568D02*
D03*
X290000Y30000D02*
D03*
X-19690Y26890D02*
D03*
X50000Y125000D02*
D03*
X-53150D02*
D03*
X-290000Y-176102D02*
D03*
Y-44606D02*
D03*
X-381496Y-308090D02*
D03*
X1172980Y-900000D02*
D03*
X-1213390Y-50000D02*
D03*
X-1613390Y175000D02*
D03*
X-1450000Y33270D02*
D03*
X-1850000Y258270D02*
D03*
X-1490000Y300000D02*
D03*
X-1386610Y-50000D02*
D03*
X-436024Y249990D02*
D03*
X-241168Y156496D02*
D03*
X-160000D02*
D03*
X-350000Y324686D02*
D03*
X-450000Y900000D02*
D03*
Y1000000D02*
D03*
X1240963Y529330D02*
D03*
X225000Y-716000D02*
D03*
X277104Y-640000D02*
D03*
X-66646D02*
D03*
X-460000Y-715550D02*
D03*
X-120630Y-716000D02*
D03*
X-414330Y-640000D02*
D03*
X-754146D02*
D03*
X-800000Y-715550D02*
D03*
X656082D02*
D03*
X616920Y-640000D02*
D03*
X889520Y-602500D02*
D03*
X1270000Y-675000D02*
D03*
X-1270000D02*
D03*
X-1172980Y-600000D02*
D03*
X-450000Y50000D02*
D03*
X-487204D02*
D03*
X-589566D02*
D03*
X-436024Y213976D02*
D03*
X50000Y196850D02*
D03*
X-53150D02*
D03*
X-275000Y-250000D02*
D03*
X50000Y-221850D02*
D03*
X-53150D02*
D03*
X-160000Y93504D02*
D03*
Y-181496D02*
D03*
X-100000Y-39370D02*
D03*
X100000Y-19690D02*
D03*
X450000Y900000D02*
D03*
Y800000D02*
D03*
D61*
X725000Y1022500D02*
D03*
X-725000D02*
D03*
Y-502500D02*
D03*
X725000D02*
D03*
%TF.MD5,0f2cc09c57d8795ab9c54665079e5ae2*%
M02*
