%TF.GenerationSoftware,Altium Limited,Altium Designer,23.8.1 (32)*%
G04 Layer_Physical_Order=3*
G04 Layer_Color=65280*
%FSLAX26Y26*%
%MOIN*%
%TF.SameCoordinates,6B68F3FB-407B-423E-831D-AB1AF3CCE0D2*%
%TF.FilePolarity,Positive*%
%TF.FileFunction,Copper,L3,Inr,Signal*%
%TF.Part,Single*%
G01*
G75*
%TA.AperFunction,ComponentPad*%
%ADD51C,0.049213*%
%ADD52R,0.049213X0.049213*%
%ADD53C,0.100000*%
%ADD54C,0.070866*%
G04:AMPARAMS|DCode=55|XSize=70.866mil|YSize=70.866mil|CornerRadius=8.858mil|HoleSize=0mil|Usage=FLASHONLY|Rotation=180.000|XOffset=0mil|YOffset=0mil|HoleType=Round|Shape=RoundedRectangle|*
%AMROUNDEDRECTD55*
21,1,0.070866,0.053150,0,0,180.0*
21,1,0.053150,0.070866,0,0,180.0*
1,1,0.017716,-0.026575,0.026575*
1,1,0.017716,0.026575,0.026575*
1,1,0.017716,0.026575,-0.026575*
1,1,0.017716,-0.026575,-0.026575*
%
%ADD55ROUNDEDRECTD55*%
%ADD58C,0.039370*%
%ADD59C,0.035430*%
%TA.AperFunction,ViaPad*%
%ADD60C,0.028000*%
%ADD61C,0.098425*%
G36*
X1656517Y1106002D02*
X1693588Y1098628D01*
X1729761Y1087655D01*
X1764682Y1073190D01*
X1798017Y1055372D01*
X1829446Y1034372D01*
X1858665Y1010392D01*
X1885392Y983665D01*
X1909372Y954446D01*
X1930372Y923017D01*
X1948190Y889681D01*
X1962655Y854761D01*
X1973628Y818588D01*
X1981002Y781517D01*
X1984707Y743900D01*
Y725000D01*
Y-325000D01*
Y-350688D01*
X1981346Y-401956D01*
X1974640Y-452895D01*
X1964617Y-503283D01*
X1951320Y-552910D01*
X1934804Y-601562D01*
X1915144Y-649027D01*
X1892419Y-695107D01*
X1866731Y-739601D01*
X1838188Y-782319D01*
X1806912Y-823079D01*
X1773035Y-861708D01*
X1736707Y-898036D01*
X1698080Y-931911D01*
X1657319Y-963188D01*
X1614600Y-991731D01*
X1570107Y-1017420D01*
X1524027Y-1040144D01*
X1476562Y-1059805D01*
X1427910Y-1076320D01*
X1378283Y-1089617D01*
X1327895Y-1099640D01*
X1276956Y-1106346D01*
X1225688Y-1109707D01*
X-1225688D01*
X-1276956Y-1106346D01*
X-1327895Y-1099640D01*
X-1378283Y-1089617D01*
X-1427910Y-1076320D01*
X-1476562Y-1059805D01*
X-1524027Y-1040144D01*
X-1570107Y-1017420D01*
X-1614601Y-991731D01*
X-1657319Y-963188D01*
X-1698079Y-931912D01*
X-1736708Y-898035D01*
X-1773036Y-861707D01*
X-1806911Y-823080D01*
X-1838188Y-782319D01*
X-1866732Y-739600D01*
X-1892420Y-695107D01*
X-1915144Y-649027D01*
X-1934805Y-601562D01*
X-1951320Y-552911D01*
X-1964617Y-503283D01*
X-1974640Y-452895D01*
X-1981346Y-401956D01*
X-1984707Y-350688D01*
Y-325000D01*
Y725000D01*
Y743899D01*
X-1981002Y781517D01*
X-1973628Y818588D01*
X-1962655Y854761D01*
X-1948190Y889682D01*
X-1930372Y923017D01*
X-1909372Y954446D01*
X-1885392Y983665D01*
X-1858665Y1010392D01*
X-1829446Y1034372D01*
X-1798017Y1055372D01*
X-1764681Y1073190D01*
X-1729761Y1087655D01*
X-1693588Y1098628D01*
X-1656517Y1106002D01*
X-1618900Y1109707D01*
X1618899D01*
X1656517Y1106002D01*
D02*
G37*
%LPC*%
G36*
X-1030812Y1096495D02*
X-1038628D01*
X-1046178Y1094472D01*
X-1052947Y1090564D01*
X-1058474Y1085037D01*
X-1062382Y1078268D01*
X-1064405Y1070718D01*
Y1062902D01*
X-1062382Y1055352D01*
X-1058474Y1048583D01*
X-1052947Y1043056D01*
X-1046178Y1039148D01*
X-1038628Y1037125D01*
X-1030812D01*
X-1023262Y1039148D01*
X-1016493Y1043056D01*
X-1010966Y1048583D01*
X-1007058Y1055352D01*
X-1005035Y1062902D01*
Y1070718D01*
X-1007058Y1078268D01*
X-1010966Y1085037D01*
X-1016493Y1090564D01*
X-1023262Y1094472D01*
X-1030812Y1096495D01*
D02*
G37*
G36*
X1142709Y1082715D02*
X1135411D01*
X1128362Y1080826D01*
X1122043Y1077178D01*
X1116882Y1072017D01*
X1113234Y1065698D01*
X1111345Y1058649D01*
Y1051351D01*
X1113234Y1044302D01*
X1116882Y1037983D01*
X1122043Y1032822D01*
X1128362Y1029174D01*
X1135411Y1027285D01*
X1142709D01*
X1149758Y1029174D01*
X1156077Y1032822D01*
X1161238Y1037983D01*
X1164886Y1044302D01*
X1166775Y1051351D01*
Y1058649D01*
X1164886Y1065698D01*
X1161238Y1072017D01*
X1156077Y1077178D01*
X1149758Y1080826D01*
X1142709Y1082715D01*
D02*
G37*
G36*
X1024589D02*
X1017291D01*
X1010242Y1080826D01*
X1003923Y1077178D01*
X998762Y1072017D01*
X995114Y1065698D01*
X993225Y1058649D01*
Y1051351D01*
X995114Y1044302D01*
X998762Y1037983D01*
X1003923Y1032822D01*
X1010242Y1029174D01*
X1017291Y1027285D01*
X1024589D01*
X1031638Y1029174D01*
X1037957Y1032822D01*
X1043118Y1037983D01*
X1046766Y1044302D01*
X1048655Y1051351D01*
Y1058649D01*
X1046766Y1065698D01*
X1043118Y1072017D01*
X1037957Y1077178D01*
X1031638Y1080826D01*
X1024589Y1082715D01*
D02*
G37*
G36*
X-1095776Y1084685D02*
X-1103592D01*
X-1111142Y1082662D01*
X-1117911Y1078754D01*
X-1123438Y1073227D01*
X-1127346Y1066458D01*
X-1129369Y1058908D01*
Y1051092D01*
X-1127346Y1043542D01*
X-1123438Y1036773D01*
X-1117911Y1031246D01*
X-1111142Y1027338D01*
X-1103592Y1025315D01*
X-1095776D01*
X-1088226Y1027338D01*
X-1081457Y1031246D01*
X-1075930Y1036773D01*
X-1072022Y1043542D01*
X-1069999Y1051092D01*
Y1058908D01*
X-1072022Y1066458D01*
X-1075930Y1073227D01*
X-1081457Y1078754D01*
X-1088226Y1082662D01*
X-1095776Y1084685D01*
D02*
G37*
G36*
X-1195226Y1044000D02*
X-1204774D01*
X-1213595Y1040346D01*
X-1220346Y1033595D01*
X-1224000Y1024774D01*
Y1015226D01*
X-1220346Y1006405D01*
X-1213595Y999654D01*
X-1204774Y996000D01*
X-1195226D01*
X-1186405Y999654D01*
X-1179654Y1006405D01*
X-1176000Y1015226D01*
Y1024774D01*
X-1179654Y1033595D01*
X-1186405Y1040346D01*
X-1195226Y1044000D01*
D02*
G37*
G36*
X-445226Y1024000D02*
X-454774D01*
X-463595Y1020346D01*
X-470346Y1013595D01*
X-474000Y1004774D01*
Y995226D01*
X-470346Y986405D01*
X-463595Y979654D01*
X-454774Y976000D01*
X-445226D01*
X-436405Y979654D01*
X-429654Y986405D01*
X-426000Y995226D01*
Y1004774D01*
X-429654Y1013595D01*
X-436405Y1020346D01*
X-445226Y1024000D01*
D02*
G37*
G36*
X1545909Y1090000D02*
X1534091D01*
X1522499Y1087694D01*
X1511579Y1083171D01*
X1501752Y1076605D01*
X1493395Y1068248D01*
X1486829Y1058421D01*
X1482306Y1047501D01*
X1480000Y1035909D01*
Y1024091D01*
X1482306Y1012499D01*
X1486829Y1001579D01*
X1493395Y991752D01*
X1501752Y983395D01*
X1511579Y976829D01*
X1522499Y972306D01*
X1534091Y970000D01*
X1545909D01*
X1557501Y972306D01*
X1568421Y976829D01*
X1578248Y983395D01*
X1586605Y991752D01*
X1593171Y1001579D01*
X1597694Y1012499D01*
X1600000Y1024091D01*
Y1035909D01*
X1597694Y1047501D01*
X1593171Y1058421D01*
X1586605Y1068248D01*
X1578248Y1076605D01*
X1568421Y1083171D01*
X1557501Y1087694D01*
X1545909Y1090000D01*
D02*
G37*
G36*
X1345909D02*
X1334091D01*
X1322499Y1087694D01*
X1311579Y1083171D01*
X1301752Y1076605D01*
X1293395Y1068248D01*
X1286829Y1058421D01*
X1282306Y1047501D01*
X1280000Y1035909D01*
Y1024091D01*
X1282306Y1012499D01*
X1286829Y1001579D01*
X1293395Y991752D01*
X1301752Y983395D01*
X1311579Y976829D01*
X1322499Y972306D01*
X1334091Y970000D01*
X1345909D01*
X1357501Y972306D01*
X1368421Y976829D01*
X1378248Y983395D01*
X1386605Y991752D01*
X1393171Y1001579D01*
X1397694Y1012499D01*
X1400000Y1024091D01*
Y1035909D01*
X1397694Y1047501D01*
X1393171Y1058421D01*
X1386605Y1068248D01*
X1378248Y1076605D01*
X1368421Y1083171D01*
X1357501Y1087694D01*
X1345909Y1090000D01*
D02*
G37*
G36*
X730832Y1081713D02*
X719168D01*
X707728Y1079437D01*
X696952Y1074974D01*
X687254Y1068493D01*
X679007Y1060246D01*
X672527Y1050548D01*
X668063Y1039772D01*
X665787Y1028332D01*
Y1016668D01*
X668063Y1005228D01*
X672527Y994452D01*
X679007Y984754D01*
X687254Y976507D01*
X696952Y970027D01*
X707728Y965563D01*
X719168Y963287D01*
X730832D01*
X742272Y965563D01*
X753048Y970027D01*
X762746Y976507D01*
X770993Y984754D01*
X777473Y994452D01*
X781937Y1005228D01*
X784213Y1016668D01*
Y1028332D01*
X781937Y1039772D01*
X777473Y1050548D01*
X770993Y1060246D01*
X762746Y1068493D01*
X753048Y1074974D01*
X742272Y1079437D01*
X730832Y1081713D01*
D02*
G37*
G36*
X-719168D02*
X-730832D01*
X-742272Y1079437D01*
X-753048Y1074974D01*
X-762746Y1068493D01*
X-770993Y1060246D01*
X-777473Y1050548D01*
X-781937Y1039772D01*
X-784213Y1028332D01*
Y1016668D01*
X-781937Y1005228D01*
X-777473Y994452D01*
X-770993Y984754D01*
X-762746Y976507D01*
X-753048Y970027D01*
X-742272Y965563D01*
X-730832Y963287D01*
X-719168D01*
X-707728Y965563D01*
X-696952Y970027D01*
X-687254Y976507D01*
X-679007Y984754D01*
X-672527Y994452D01*
X-668063Y1005228D01*
X-665787Y1016668D01*
Y1028332D01*
X-668063Y1039772D01*
X-672527Y1050548D01*
X-679007Y1060246D01*
X-687254Y1068493D01*
X-696952Y1074974D01*
X-707728Y1079437D01*
X-719168Y1081713D01*
D02*
G37*
G36*
X1173354Y954000D02*
X1163806D01*
X1154985Y950346D01*
X1148234Y943595D01*
X1144580Y934774D01*
Y925226D01*
X1148234Y916405D01*
X1154985Y909654D01*
X1163806Y906000D01*
X1173354D01*
X1182175Y909654D01*
X1188926Y916405D01*
X1192580Y925226D01*
Y934774D01*
X1188926Y943595D01*
X1182175Y950346D01*
X1173354Y954000D01*
D02*
G37*
G36*
X114774Y934568D02*
X105226D01*
X96405Y930914D01*
X89654Y924163D01*
X86000Y915342D01*
Y905794D01*
X89654Y896973D01*
X96405Y890222D01*
X105226Y886568D01*
X114774D01*
X123595Y890222D01*
X130346Y896973D01*
X134000Y905794D01*
Y915342D01*
X130346Y924163D01*
X123595Y930914D01*
X114774Y934568D01*
D02*
G37*
G36*
X-1370444Y954016D02*
X-1379556D01*
X-1388358Y951657D01*
X-1396249Y947101D01*
X-1402692Y940658D01*
X-1407248Y932767D01*
X-1409606Y923966D01*
Y914854D01*
X-1407248Y906052D01*
X-1402692Y898161D01*
X-1396249Y891718D01*
X-1388358Y887162D01*
X-1379556Y884803D01*
X-1370444D01*
X-1361642Y887162D01*
X-1353751Y891718D01*
X-1347308Y898161D01*
X-1342752Y906052D01*
X-1340394Y914854D01*
Y923966D01*
X-1342752Y932767D01*
X-1347308Y940658D01*
X-1353751Y947101D01*
X-1361642Y951657D01*
X-1370444Y954016D01*
D02*
G37*
G36*
X-1470444D02*
X-1479556D01*
X-1488358Y951657D01*
X-1496249Y947101D01*
X-1502692Y940658D01*
X-1507248Y932767D01*
X-1509606Y923966D01*
Y914854D01*
X-1507248Y906052D01*
X-1502692Y898161D01*
X-1496249Y891718D01*
X-1488358Y887162D01*
X-1479556Y884803D01*
X-1470444D01*
X-1461642Y887162D01*
X-1453751Y891718D01*
X-1447308Y898161D01*
X-1442752Y906052D01*
X-1440394Y914854D01*
Y923966D01*
X-1442752Y932767D01*
X-1447308Y940658D01*
X-1453751Y947101D01*
X-1461642Y951657D01*
X-1470444Y954016D01*
D02*
G37*
G36*
X-1540394D02*
X-1609606D01*
Y884803D01*
X-1540394D01*
Y954016D01*
D02*
G37*
G36*
X454774Y924000D02*
X445226D01*
X436405Y920346D01*
X429654Y913595D01*
X426000Y904774D01*
Y895226D01*
X429654Y886405D01*
X436405Y879654D01*
X445226Y876000D01*
X454774D01*
X463595Y879654D01*
X470346Y886405D01*
X474000Y895226D01*
Y904774D01*
X470346Y913595D01*
X463595Y920346D01*
X454774Y924000D01*
D02*
G37*
G36*
X-475226Y964000D02*
X-484774D01*
X-493595Y960346D01*
X-500346Y953595D01*
X-504000Y944774D01*
Y935226D01*
X-500346Y926405D01*
X-493595Y919654D01*
X-484774Y916000D01*
X-475226D01*
X-474169Y916438D01*
X-473495Y915937D01*
X-470839Y912405D01*
X-474000Y904774D01*
Y895226D01*
X-470346Y886405D01*
X-463595Y879654D01*
X-454774Y876000D01*
X-445226D01*
X-436405Y879654D01*
X-429654Y886405D01*
X-426000Y895226D01*
Y904774D01*
X-429654Y913595D01*
X-436405Y920346D01*
X-445226Y924000D01*
X-454774D01*
X-455831Y923562D01*
X-456505Y924063D01*
X-459161Y927595D01*
X-456000Y935226D01*
Y944774D01*
X-459654Y953595D01*
X-466405Y960346D01*
X-475226Y964000D01*
D02*
G37*
G36*
X1741782Y899000D02*
X1732234D01*
X1723413Y895346D01*
X1716662Y888595D01*
X1713008Y879774D01*
Y870226D01*
X1716662Y861405D01*
X1723413Y854654D01*
X1732234Y851000D01*
X1741782D01*
X1750603Y854654D01*
X1757354Y861405D01*
X1761008Y870226D01*
Y879774D01*
X1757354Y888595D01*
X1750603Y895346D01*
X1741782Y899000D01*
D02*
G37*
G36*
X-775344Y884000D02*
X-784892D01*
X-793713Y880346D01*
X-800464Y873595D01*
X-804118Y864774D01*
Y855226D01*
X-800464Y846405D01*
X-793713Y839654D01*
X-784892Y836000D01*
X-775344D01*
X-766523Y839654D01*
X-759772Y846405D01*
X-756118Y855226D01*
Y864774D01*
X-759772Y873595D01*
X-766523Y880346D01*
X-775344Y884000D01*
D02*
G37*
G36*
X-992546D02*
X-1002094D01*
X-1010915Y880346D01*
X-1017666Y873595D01*
X-1021320Y864774D01*
Y855226D01*
X-1017666Y846405D01*
X-1010915Y839654D01*
X-1002094Y836000D01*
X-992546D01*
X-983725Y839654D01*
X-976974Y846405D01*
X-973320Y855226D01*
Y864774D01*
X-976974Y873595D01*
X-983725Y880346D01*
X-992546Y884000D01*
D02*
G37*
G36*
X-170226Y864000D02*
X-179774D01*
X-188595Y860346D01*
X-195346Y853595D01*
X-199000Y844774D01*
Y835226D01*
X-195346Y826405D01*
X-188595Y819654D01*
X-179774Y816000D01*
X-170226D01*
X-161405Y819654D01*
X-154654Y826405D01*
X-151000Y835226D01*
Y844774D01*
X-154654Y853595D01*
X-161405Y860346D01*
X-170226Y864000D01*
D02*
G37*
G36*
X-434954Y824000D02*
X-444502D01*
X-453323Y820346D01*
X-460074Y813595D01*
X-463728Y804774D01*
Y795226D01*
X-460074Y786405D01*
X-453323Y779654D01*
X-444502Y776000D01*
X-434954D01*
X-426133Y779654D01*
X-419382Y786405D01*
X-415728Y795226D01*
Y804774D01*
X-419382Y813595D01*
X-426133Y820346D01*
X-434954Y824000D01*
D02*
G37*
G36*
X1545909Y890000D02*
X1534091D01*
X1522499Y887694D01*
X1511579Y883171D01*
X1501752Y876605D01*
X1493395Y868248D01*
X1486829Y858421D01*
X1482306Y847501D01*
X1480000Y835909D01*
Y824091D01*
X1482306Y812499D01*
X1486829Y801579D01*
X1493395Y791752D01*
X1501752Y783395D01*
X1511579Y776829D01*
X1522499Y772306D01*
X1534091Y770000D01*
X1545909D01*
X1557501Y772306D01*
X1568421Y776829D01*
X1578248Y783395D01*
X1586605Y791752D01*
X1593171Y801579D01*
X1597694Y812499D01*
X1600000Y824091D01*
Y835909D01*
X1597694Y847501D01*
X1593171Y858421D01*
X1586605Y868248D01*
X1578248Y876605D01*
X1568421Y883171D01*
X1557501Y887694D01*
X1545909Y890000D01*
D02*
G37*
G36*
X1345909D02*
X1334091D01*
X1322499Y887694D01*
X1311579Y883171D01*
X1301752Y876605D01*
X1293395Y868248D01*
X1286829Y858421D01*
X1282306Y847501D01*
X1280000Y835909D01*
Y824091D01*
X1282306Y812499D01*
X1286829Y801579D01*
X1293395Y791752D01*
X1301752Y783395D01*
X1311579Y776829D01*
X1322499Y772306D01*
X1334091Y770000D01*
X1345909D01*
X1357501Y772306D01*
X1368421Y776829D01*
X1378248Y783395D01*
X1386605Y791752D01*
X1393171Y801579D01*
X1397694Y812499D01*
X1400000Y824091D01*
Y835909D01*
X1397694Y847501D01*
X1393171Y858421D01*
X1386605Y868248D01*
X1378248Y876605D01*
X1368421Y883171D01*
X1357501Y887694D01*
X1345909Y890000D01*
D02*
G37*
G36*
X-95226Y815043D02*
X-104774D01*
X-113595Y811389D01*
X-120346Y804638D01*
X-124000Y795817D01*
Y786269D01*
X-120346Y777448D01*
X-113595Y770697D01*
X-104774Y767043D01*
X-95226D01*
X-86405Y770697D01*
X-79654Y777448D01*
X-76000Y786269D01*
Y795817D01*
X-79654Y804638D01*
X-86405Y811389D01*
X-95226Y815043D01*
D02*
G37*
G36*
X-245226D02*
X-254774D01*
X-263595Y811389D01*
X-270346Y804638D01*
X-274000Y795817D01*
Y786269D01*
X-270346Y777448D01*
X-263595Y770697D01*
X-254774Y767043D01*
X-245226D01*
X-236405Y770697D01*
X-229654Y777448D01*
X-226000Y786269D01*
Y795817D01*
X-229654Y804638D01*
X-236405Y811389D01*
X-245226Y815043D01*
D02*
G37*
G36*
X1764774Y762326D02*
X1755226D01*
X1746405Y758672D01*
X1739654Y751921D01*
X1736000Y743100D01*
Y733552D01*
X1739654Y724731D01*
X1745879Y718506D01*
X1739654Y712280D01*
X1736000Y703459D01*
Y693911D01*
X1739654Y685090D01*
X1746405Y678339D01*
X1755226Y674685D01*
X1764774D01*
X1773595Y678339D01*
X1780346Y685090D01*
X1784000Y693911D01*
Y703459D01*
X1780346Y712280D01*
X1774121Y718506D01*
X1780346Y724731D01*
X1784000Y733552D01*
Y743100D01*
X1780346Y751921D01*
X1773595Y758672D01*
X1764774Y762326D01*
D02*
G37*
G36*
X-1255226Y694000D02*
X-1264774D01*
X-1273595Y690346D01*
X-1280346Y683595D01*
X-1284000Y674774D01*
Y665226D01*
X-1280346Y656405D01*
X-1273595Y649654D01*
X-1264774Y646000D01*
X-1255226D01*
X-1246405Y649654D01*
X-1239654Y656405D01*
X-1236000Y665226D01*
Y674774D01*
X-1239654Y683595D01*
X-1246405Y690346D01*
X-1255226Y694000D01*
D02*
G37*
G36*
X1706644Y674000D02*
X1697096D01*
X1688275Y670346D01*
X1681524Y663595D01*
X1677870Y654774D01*
Y645226D01*
X1681524Y636405D01*
X1688275Y629654D01*
X1697096Y626000D01*
X1706644D01*
X1715465Y629654D01*
X1722216Y636405D01*
X1725870Y645226D01*
Y654774D01*
X1722216Y663595D01*
X1715465Y670346D01*
X1706644Y674000D01*
D02*
G37*
G36*
X-540896Y724000D02*
X-550444D01*
X-559265Y720346D01*
X-566016Y713595D01*
X-569670Y704774D01*
Y695226D01*
X-566016Y686405D01*
X-559265Y679654D01*
X-554562Y677706D01*
Y672294D01*
X-559265Y670346D01*
X-566016Y663595D01*
X-569670Y654774D01*
Y645226D01*
X-566016Y636405D01*
X-559265Y629654D01*
X-550444Y626000D01*
X-540896D01*
X-532075Y629654D01*
X-525324Y636405D01*
X-521670Y645226D01*
Y654774D01*
X-525324Y663595D01*
X-532075Y670346D01*
X-536778Y672294D01*
Y677706D01*
X-532075Y679654D01*
X-525324Y686405D01*
X-521670Y695226D01*
Y704774D01*
X-525324Y713595D01*
X-532075Y720346D01*
X-540896Y724000D01*
D02*
G37*
G36*
X-1015226Y674000D02*
X-1024774D01*
X-1033595Y670346D01*
X-1040346Y663595D01*
X-1044000Y654774D01*
Y645226D01*
X-1040346Y636405D01*
X-1033595Y629654D01*
X-1024774Y626000D01*
X-1015226D01*
X-1006405Y629654D01*
X-999654Y636405D01*
X-996000Y645226D01*
Y654774D01*
X-999654Y663595D01*
X-1006405Y670346D01*
X-1015226Y674000D01*
D02*
G37*
G36*
X-1706407Y673189D02*
X-1715955D01*
X-1724776Y669535D01*
X-1731527Y662784D01*
X-1735181Y653963D01*
Y644415D01*
X-1731527Y635594D01*
X-1724776Y628843D01*
X-1715955Y625189D01*
X-1706407D01*
X-1697586Y628843D01*
X-1690835Y635594D01*
X-1687181Y644415D01*
Y653963D01*
X-1690835Y662784D01*
X-1697586Y669535D01*
X-1706407Y673189D01*
D02*
G37*
G36*
X-1574911Y666362D02*
X-1584459D01*
X-1593280Y662708D01*
X-1600031Y655957D01*
X-1603685Y647136D01*
Y637588D01*
X-1600031Y628767D01*
X-1593280Y622016D01*
X-1584459Y618362D01*
X-1574911D01*
X-1566090Y622016D01*
X-1559339Y628767D01*
X-1555685Y637588D01*
Y647136D01*
X-1559339Y655957D01*
X-1566090Y662708D01*
X-1574911Y666362D01*
D02*
G37*
G36*
X-1405226Y619118D02*
X-1414774D01*
X-1423595Y615464D01*
X-1430346Y608713D01*
X-1434000Y599892D01*
Y590344D01*
X-1430346Y581523D01*
X-1423595Y574772D01*
X-1414774Y571118D01*
X-1405226D01*
X-1396405Y574772D01*
X-1389654Y581523D01*
X-1386000Y590344D01*
Y599892D01*
X-1389654Y608713D01*
X-1396405Y615464D01*
X-1405226Y619118D01*
D02*
G37*
G36*
X-415226Y574000D02*
X-424774D01*
X-433595Y570346D01*
X-440346Y563595D01*
X-444000Y554774D01*
Y545226D01*
X-440346Y536405D01*
X-433595Y529654D01*
X-424774Y526000D01*
X-415226D01*
X-406405Y529654D01*
X-399654Y536405D01*
X-396000Y545226D01*
Y554774D01*
X-399654Y563595D01*
X-406405Y570346D01*
X-415226Y574000D01*
D02*
G37*
G36*
X1245737Y553330D02*
X1236189D01*
X1227368Y549676D01*
X1220617Y542925D01*
X1216963Y534104D01*
Y524556D01*
X1220617Y515735D01*
X1227368Y508984D01*
X1236189Y505330D01*
X1245737D01*
X1254558Y508984D01*
X1261309Y515735D01*
X1264963Y524556D01*
Y534104D01*
X1261309Y542925D01*
X1254558Y549676D01*
X1245737Y553330D01*
D02*
G37*
G36*
X1383649Y557045D02*
X1376351D01*
X1369302Y555156D01*
X1362983Y551508D01*
X1357822Y546347D01*
X1354174Y540028D01*
X1352285Y532979D01*
Y525681D01*
X1354174Y518632D01*
X1357822Y512313D01*
X1362983Y507152D01*
X1369302Y503504D01*
X1376351Y501615D01*
X1383649D01*
X1390698Y503504D01*
X1397017Y507152D01*
X1402178Y512313D01*
X1405826Y518632D01*
X1407715Y525681D01*
Y532979D01*
X1405826Y540028D01*
X1402178Y546347D01*
X1397017Y551508D01*
X1390698Y555156D01*
X1383649Y557045D01*
D02*
G37*
G36*
X1304909D02*
X1297611D01*
X1290562Y555156D01*
X1284243Y551508D01*
X1279082Y546347D01*
X1275434Y540028D01*
X1273545Y532979D01*
Y525681D01*
X1275434Y518632D01*
X1279082Y512313D01*
X1284243Y507152D01*
X1290562Y503504D01*
X1297611Y501615D01*
X1304909D01*
X1311958Y503504D01*
X1318277Y507152D01*
X1323438Y512313D01*
X1327086Y518632D01*
X1328975Y525681D01*
Y532979D01*
X1327086Y540028D01*
X1323438Y546347D01*
X1318277Y551508D01*
X1311958Y555156D01*
X1304909Y557045D01*
D02*
G37*
G36*
X-1223726Y546685D02*
X-1233274D01*
X-1242095Y543031D01*
X-1248846Y536280D01*
X-1252500Y527459D01*
Y517911D01*
X-1248846Y509090D01*
X-1242095Y502339D01*
X-1233274Y498685D01*
X-1223726D01*
X-1214905Y502339D01*
X-1208154Y509090D01*
X-1204500Y517911D01*
Y527459D01*
X-1208154Y536280D01*
X-1214905Y543031D01*
X-1223726Y546685D01*
D02*
G37*
G36*
X-818415Y494000D02*
X-827963D01*
X-836784Y490346D01*
X-843535Y483595D01*
X-847189Y474774D01*
Y465226D01*
X-843535Y456405D01*
X-836784Y449654D01*
X-827963Y446000D01*
X-818415D01*
X-809594Y449654D01*
X-802843Y456405D01*
X-799189Y465226D01*
Y474774D01*
X-802843Y483595D01*
X-809594Y490346D01*
X-818415Y494000D01*
D02*
G37*
G36*
X-904478Y475181D02*
X-914026D01*
X-922847Y471527D01*
X-929598Y464776D01*
X-933252Y455955D01*
Y446407D01*
X-929598Y437586D01*
X-922847Y430835D01*
X-914026Y427181D01*
X-904478D01*
X-895657Y430835D01*
X-888906Y437586D01*
X-885252Y446407D01*
Y455955D01*
X-888906Y464776D01*
X-895657Y471527D01*
X-904478Y475181D01*
D02*
G37*
G36*
X-958021D02*
X-967569D01*
X-976390Y471527D01*
X-983141Y464776D01*
X-986795Y455955D01*
Y446407D01*
X-983141Y437586D01*
X-976390Y430835D01*
X-967569Y427181D01*
X-958021D01*
X-949200Y430835D01*
X-942449Y437586D01*
X-938795Y446407D01*
Y455955D01*
X-942449Y464776D01*
X-949200Y471527D01*
X-958021Y475181D01*
D02*
G37*
G36*
X-415226Y474000D02*
X-424774D01*
X-433595Y470346D01*
X-440346Y463595D01*
X-444000Y454774D01*
Y445226D01*
X-440346Y436405D01*
X-433595Y429654D01*
X-424774Y426000D01*
X-415226D01*
X-406405Y429654D01*
X-399654Y436405D01*
X-396000Y445226D01*
Y454774D01*
X-399654Y463595D01*
X-406405Y470346D01*
X-415226Y474000D01*
D02*
G37*
G36*
X-1670226Y449900D02*
X-1679774D01*
X-1688595Y446246D01*
X-1695346Y439495D01*
X-1699000Y430674D01*
Y421126D01*
X-1695346Y412305D01*
X-1688595Y405554D01*
X-1679774Y401900D01*
X-1674000D01*
Y395226D01*
X-1670346Y386405D01*
X-1663595Y379654D01*
X-1654774Y376000D01*
X-1645226D01*
X-1636405Y379654D01*
X-1629654Y386405D01*
X-1626000Y395226D01*
Y404774D01*
X-1629654Y413595D01*
X-1636405Y420346D01*
X-1645226Y424000D01*
X-1651000D01*
Y430674D01*
X-1654654Y439495D01*
X-1661405Y446246D01*
X-1670226Y449900D01*
D02*
G37*
G36*
X-345226Y348686D02*
X-354774D01*
X-363595Y345032D01*
X-370346Y338281D01*
X-374000Y329460D01*
Y319912D01*
X-370346Y311091D01*
X-363595Y304339D01*
X-354774Y300686D01*
X-345226D01*
X-336405Y304339D01*
X-329654Y311091D01*
X-326000Y319912D01*
Y329460D01*
X-329654Y338281D01*
X-336405Y345032D01*
X-345226Y348686D01*
D02*
G37*
G36*
X-962746Y336800D02*
X-972294D01*
X-981115Y333146D01*
X-987867Y326395D01*
X-991520Y317574D01*
Y308026D01*
X-987867Y299205D01*
X-981115Y292454D01*
X-972294Y288800D01*
X-962746D01*
X-953926Y292454D01*
X-947174Y299205D01*
X-943520Y308026D01*
Y317574D01*
X-947174Y326395D01*
X-953926Y333146D01*
X-962746Y336800D01*
D02*
G37*
G36*
X-818415Y293485D02*
X-827963D01*
X-836784Y289831D01*
X-843535Y283080D01*
X-847189Y274259D01*
Y264711D01*
X-843535Y255890D01*
X-836784Y249139D01*
X-827963Y245485D01*
X-818415D01*
X-809594Y249139D01*
X-802843Y255890D01*
X-799189Y264711D01*
Y274259D01*
X-802843Y283080D01*
X-809594Y289831D01*
X-818415Y293485D01*
D02*
G37*
G36*
X-1845226Y282270D02*
X-1854774D01*
X-1863595Y278616D01*
X-1870346Y271865D01*
X-1874000Y263044D01*
Y253496D01*
X-1870346Y244675D01*
X-1863595Y237924D01*
X-1854774Y234270D01*
X-1845226D01*
X-1836405Y237924D01*
X-1829654Y244675D01*
X-1826000Y253496D01*
Y263044D01*
X-1829654Y271865D01*
X-1836405Y278616D01*
X-1845226Y282270D01*
D02*
G37*
G36*
X354774Y274000D02*
X345226D01*
X336405Y270346D01*
X329654Y263595D01*
X326000Y254774D01*
Y245226D01*
X329654Y236405D01*
X336405Y229654D01*
X345226Y226000D01*
X354774D01*
X363595Y229654D01*
X370346Y236405D01*
X374000Y245226D01*
Y254774D01*
X370346Y263595D01*
X363595Y270346D01*
X354774Y274000D01*
D02*
G37*
G36*
X-431250Y273990D02*
X-440798D01*
X-449619Y270337D01*
X-456370Y263585D01*
X-460024Y254764D01*
Y245217D01*
X-456370Y236396D01*
X-449619Y229644D01*
X-440798Y225990D01*
X-431250D01*
X-422429Y229644D01*
X-415678Y236396D01*
X-412024Y245217D01*
Y254764D01*
X-415678Y263585D01*
X-422429Y270337D01*
X-431250Y273990D01*
D02*
G37*
G36*
X-386332Y237976D02*
X-395880D01*
X-404701Y234322D01*
X-411452Y227571D01*
X-415106Y218750D01*
Y209202D01*
X-411452Y200381D01*
X-404701Y193630D01*
X-395880Y189976D01*
X-386332D01*
X-383577Y191117D01*
X-381123Y185194D01*
X-374372Y178443D01*
X-365551Y174789D01*
X-356003D01*
X-347182Y178443D01*
X-340431Y185194D01*
X-336777Y194015D01*
Y203563D01*
X-340431Y212384D01*
X-347182Y219135D01*
X-356003Y222789D01*
X-365551D01*
X-368306Y221648D01*
X-370760Y227571D01*
X-377511Y234322D01*
X-386332Y237976D01*
D02*
G37*
G36*
X54774Y220850D02*
X45226D01*
X36405Y217196D01*
X29654Y210445D01*
X26000Y201624D01*
Y192076D01*
X29654Y183255D01*
X36405Y176504D01*
X45226Y172850D01*
X54774D01*
X63595Y176504D01*
X70346Y183255D01*
X74000Y192076D01*
Y201624D01*
X70346Y210445D01*
X63595Y217196D01*
X54774Y220850D01*
D02*
G37*
G36*
X-48376D02*
X-57924D01*
X-66745Y217196D01*
X-73496Y210445D01*
X-77150Y201624D01*
Y192076D01*
X-73496Y183255D01*
X-66745Y176504D01*
X-57924Y172850D01*
X-48376D01*
X-39555Y176504D01*
X-32804Y183255D01*
X-29150Y192076D01*
Y201624D01*
X-32804Y210445D01*
X-39555Y217196D01*
X-48376Y220850D01*
D02*
G37*
G36*
X-1608616Y199000D02*
X-1618164D01*
X-1626985Y195346D01*
X-1633736Y188595D01*
X-1637390Y179774D01*
Y170226D01*
X-1633736Y161405D01*
X-1626985Y154654D01*
X-1618164Y151000D01*
X-1608616D01*
X-1599795Y154654D01*
X-1593044Y161405D01*
X-1589390Y170226D01*
Y179774D01*
X-1593044Y188595D01*
X-1599795Y195346D01*
X-1608616Y199000D01*
D02*
G37*
G36*
X1737979Y202715D02*
X1730681D01*
X1723632Y200826D01*
X1717313Y197178D01*
X1712152Y192017D01*
X1708504Y185698D01*
X1706615Y178649D01*
Y171351D01*
X1708504Y164302D01*
X1712152Y157983D01*
X1717313Y152822D01*
X1723632Y149174D01*
X1730681Y147285D01*
X1737979D01*
X1745028Y149174D01*
X1751347Y152822D01*
X1756508Y157983D01*
X1760156Y164302D01*
X1762045Y171351D01*
Y178649D01*
X1760156Y185698D01*
X1756508Y192017D01*
X1751347Y197178D01*
X1745028Y200826D01*
X1737979Y202715D01*
D02*
G37*
G36*
X-155226Y180496D02*
X-164774D01*
X-173595Y176842D01*
X-180346Y170091D01*
X-184000Y161270D01*
Y151722D01*
X-180346Y142901D01*
X-173595Y136150D01*
X-164774Y132496D01*
X-155226D01*
X-146405Y136150D01*
X-139654Y142901D01*
X-136000Y151722D01*
Y161270D01*
X-139654Y170091D01*
X-146405Y176842D01*
X-155226Y180496D01*
D02*
G37*
G36*
X-236394D02*
X-245942D01*
X-254763Y176842D01*
X-261514Y170091D01*
X-265168Y161270D01*
Y151722D01*
X-261514Y142901D01*
X-254763Y136150D01*
X-245942Y132496D01*
X-236394D01*
X-227573Y136150D01*
X-220822Y142901D01*
X-217168Y151722D01*
Y161270D01*
X-220822Y170091D01*
X-227573Y176842D01*
X-236394Y180496D01*
D02*
G37*
G36*
X1737979Y123975D02*
X1730681D01*
X1723632Y122086D01*
X1717313Y118438D01*
X1712152Y113277D01*
X1708504Y106958D01*
X1706615Y99909D01*
Y92611D01*
X1708504Y85562D01*
X1712152Y79243D01*
X1717313Y74082D01*
X1723632Y70434D01*
X1730681Y68545D01*
X1737979D01*
X1745028Y70434D01*
X1751347Y74082D01*
X1756508Y79243D01*
X1760156Y85562D01*
X1762045Y92611D01*
Y99909D01*
X1760156Y106958D01*
X1756508Y113277D01*
X1751347Y118438D01*
X1745028Y122086D01*
X1737979Y123975D01*
D02*
G37*
G36*
X-445226Y74000D02*
X-454774D01*
X-463595Y70346D01*
X-468602Y65339D01*
X-473609Y70346D01*
X-482430Y74000D01*
X-491978D01*
X-500799Y70346D01*
X-507550Y63595D01*
X-511204Y54774D01*
Y45226D01*
X-507550Y36405D01*
X-500799Y29654D01*
X-491978Y26000D01*
X-482430D01*
X-473609Y29654D01*
X-468602Y34661D01*
X-463595Y29654D01*
X-454774Y26000D01*
X-445226D01*
X-436405Y29654D01*
X-429654Y36405D01*
X-426000Y45226D01*
Y54774D01*
X-429654Y63595D01*
X-436405Y70346D01*
X-445226Y74000D01*
D02*
G37*
G36*
X-584792D02*
X-594340D01*
X-603161Y70346D01*
X-609912Y63595D01*
X-613566Y54774D01*
Y45226D01*
X-609912Y36405D01*
X-603161Y29654D01*
X-594340Y26000D01*
X-584792D01*
X-575971Y29654D01*
X-569220Y36405D01*
X-565566Y45226D01*
Y54774D01*
X-569220Y63595D01*
X-575971Y70346D01*
X-584792Y74000D01*
D02*
G37*
G36*
X-1445226Y57270D02*
X-1454774D01*
X-1463595Y53616D01*
X-1470346Y46865D01*
X-1474000Y38044D01*
Y28496D01*
X-1470346Y19675D01*
X-1463595Y12924D01*
X-1454774Y9270D01*
X-1445226D01*
X-1436405Y12924D01*
X-1429654Y19675D01*
X-1426000Y28496D01*
Y38044D01*
X-1429654Y46865D01*
X-1436405Y53616D01*
X-1445226Y57270D01*
D02*
G37*
G36*
X294774Y54000D02*
X285226D01*
X276405Y50346D01*
X269654Y43595D01*
X266000Y34774D01*
Y25226D01*
X269654Y16405D01*
X276405Y9654D01*
X285226Y6000D01*
X294774D01*
X303595Y9654D01*
X310346Y16405D01*
X314000Y25226D01*
Y34774D01*
X310346Y43595D01*
X303595Y50346D01*
X294774Y54000D01*
D02*
G37*
G36*
X-14916Y50890D02*
X-24464D01*
X-33285Y47236D01*
X-40036Y40485D01*
X-43690Y31664D01*
Y22116D01*
X-40036Y13295D01*
X-33285Y6544D01*
X-24464Y2890D01*
X-14916D01*
X-6095Y6544D01*
X656Y13295D01*
X4310Y22116D01*
Y31664D01*
X656Y40485D01*
X-6095Y47236D01*
X-14916Y50890D01*
D02*
G37*
G36*
X-1165996Y24000D02*
X-1175544D01*
X-1184365Y20346D01*
X-1191116Y13595D01*
X-1194770Y4774D01*
Y-4774D01*
X-1191116Y-13595D01*
X-1184365Y-20346D01*
X-1175544Y-24000D01*
X-1165996D01*
X-1157175Y-20346D01*
X-1150424Y-13595D01*
X-1146770Y-4774D01*
Y4774D01*
X-1150424Y13595D01*
X-1157175Y20346D01*
X-1165996Y24000D01*
D02*
G37*
G36*
X104774Y43690D02*
X95226D01*
X86405Y40036D01*
X79654Y33285D01*
X76000Y24464D01*
Y14916D01*
X79654Y6095D01*
X85749Y0D01*
X79654Y-6095D01*
X76000Y-14916D01*
Y-24464D01*
X79654Y-33285D01*
X86405Y-40036D01*
X95226Y-43690D01*
X104774D01*
X113595Y-40036D01*
X120346Y-33285D01*
X124000Y-24464D01*
Y-14916D01*
X120346Y-6095D01*
X114251Y0D01*
X120346Y6095D01*
X124000Y14916D01*
Y24464D01*
X120346Y33285D01*
X113595Y40036D01*
X104774Y43690D01*
D02*
G37*
G36*
X-95226Y-15370D02*
X-104774D01*
X-113595Y-19024D01*
X-120346Y-25775D01*
X-124000Y-34596D01*
Y-44144D01*
X-120346Y-52965D01*
X-113595Y-59716D01*
X-104774Y-63370D01*
X-95226D01*
X-86405Y-59716D01*
X-79654Y-52965D01*
X-76000Y-44144D01*
Y-34596D01*
X-79654Y-25775D01*
X-86405Y-19024D01*
X-95226Y-15370D01*
D02*
G37*
G36*
X-285226Y-20606D02*
X-294774D01*
X-303595Y-24260D01*
X-310346Y-31011D01*
X-314000Y-39832D01*
Y-49380D01*
X-310346Y-58201D01*
X-303595Y-64952D01*
X-294774Y-68606D01*
X-285226D01*
X-276405Y-64952D01*
X-269654Y-58201D01*
X-266000Y-49380D01*
Y-39832D01*
X-269654Y-31011D01*
X-276405Y-24260D01*
X-285226Y-20606D01*
D02*
G37*
G36*
X-1208616Y-26000D02*
X-1218164D01*
X-1226985Y-29654D01*
X-1233736Y-36405D01*
X-1237390Y-45226D01*
Y-54774D01*
X-1233736Y-63595D01*
X-1226985Y-70346D01*
X-1218164Y-74000D01*
X-1208616D01*
X-1199795Y-70346D01*
X-1193044Y-63595D01*
X-1189390Y-54774D01*
Y-45226D01*
X-1193044Y-36405D01*
X-1199795Y-29654D01*
X-1208616Y-26000D01*
D02*
G37*
G36*
X-1381836D02*
X-1391384D01*
X-1400205Y-29654D01*
X-1406956Y-36405D01*
X-1410610Y-45226D01*
Y-54774D01*
X-1406956Y-63595D01*
X-1400205Y-70346D01*
X-1391384Y-74000D01*
X-1381836D01*
X-1373015Y-70346D01*
X-1366264Y-63595D01*
X-1362610Y-54774D01*
Y-45226D01*
X-1366264Y-36405D01*
X-1373015Y-29654D01*
X-1381836Y-26000D01*
D02*
G37*
G36*
X-508022Y-196482D02*
X-517570D01*
X-526391Y-200136D01*
X-533142Y-206887D01*
X-536796Y-215708D01*
Y-225256D01*
X-533142Y-234077D01*
X-526391Y-240828D01*
X-517570Y-244482D01*
X-508022D01*
X-499201Y-240828D01*
X-492450Y-234077D01*
X-488796Y-225256D01*
Y-215708D01*
X-492450Y-206887D01*
X-499201Y-200136D01*
X-508022Y-196482D01*
D02*
G37*
G36*
X-270226Y-226000D02*
X-279774D01*
X-288595Y-229654D01*
X-295346Y-236405D01*
X-299000Y-245226D01*
Y-254774D01*
X-295346Y-263595D01*
X-288595Y-270346D01*
X-279774Y-274000D01*
X-270226D01*
X-261405Y-270346D01*
X-254654Y-263595D01*
X-251000Y-254774D01*
Y-245226D01*
X-254654Y-236405D01*
X-261405Y-229654D01*
X-270226Y-226000D01*
D02*
G37*
G36*
X730832Y-443287D02*
X719168D01*
X707728Y-445563D01*
X696952Y-450026D01*
X687254Y-456507D01*
X679007Y-464754D01*
X672527Y-474452D01*
X668063Y-485228D01*
X665787Y-496668D01*
Y-508332D01*
X668063Y-519772D01*
X672527Y-530548D01*
X679007Y-540246D01*
X687254Y-548493D01*
X696952Y-554973D01*
X707728Y-559437D01*
X719168Y-561713D01*
X730832D01*
X742272Y-559437D01*
X753048Y-554973D01*
X762746Y-548493D01*
X770993Y-540246D01*
X777473Y-530548D01*
X781937Y-519772D01*
X784213Y-508332D01*
Y-496668D01*
X781937Y-485228D01*
X777473Y-474452D01*
X770993Y-464754D01*
X762746Y-456507D01*
X753048Y-450026D01*
X742272Y-445563D01*
X730832Y-443287D01*
D02*
G37*
G36*
X445981Y-482067D02*
X434019D01*
X422464Y-485163D01*
X412103Y-491145D01*
X403645Y-499603D01*
X397663Y-509964D01*
X394567Y-521519D01*
Y-533481D01*
X397663Y-545037D01*
X403645Y-555396D01*
X412103Y-563855D01*
X422464Y-569837D01*
X434019Y-572933D01*
X445981D01*
X457536Y-569837D01*
X467897Y-563855D01*
X476355Y-555396D01*
X482337Y-545037D01*
X485433Y-533481D01*
Y-521519D01*
X482337Y-509964D01*
X476355Y-499603D01*
X467897Y-491145D01*
X457536Y-485163D01*
X445981Y-482067D01*
D02*
G37*
G36*
X345981D02*
X334019D01*
X322464Y-485163D01*
X312103Y-491145D01*
X303645Y-499603D01*
X297663Y-509964D01*
X294567Y-521519D01*
Y-533481D01*
X297663Y-545037D01*
X303645Y-555396D01*
X312103Y-563855D01*
X322464Y-569837D01*
X334019Y-572933D01*
X345981D01*
X357536Y-569837D01*
X367897Y-563855D01*
X376355Y-555396D01*
X382337Y-545037D01*
X385433Y-533481D01*
Y-521519D01*
X382337Y-509964D01*
X376355Y-499603D01*
X367897Y-491145D01*
X357536Y-485163D01*
X345981Y-482067D01*
D02*
G37*
G36*
X245981D02*
X234019D01*
X222464Y-485163D01*
X212103Y-491145D01*
X203645Y-499603D01*
X197663Y-509964D01*
X194567Y-521519D01*
Y-533481D01*
X197663Y-545037D01*
X203645Y-555396D01*
X212103Y-563855D01*
X222464Y-569837D01*
X234019Y-572933D01*
X245981D01*
X257536Y-569837D01*
X267897Y-563855D01*
X276355Y-555396D01*
X282337Y-545037D01*
X285433Y-533481D01*
Y-521519D01*
X282337Y-509964D01*
X276355Y-499603D01*
X267897Y-491145D01*
X257536Y-485163D01*
X245981Y-482067D01*
D02*
G37*
G36*
X145981D02*
X134019D01*
X122463Y-485163D01*
X112103Y-491145D01*
X103645Y-499603D01*
X97663Y-509964D01*
X94567Y-521519D01*
Y-533481D01*
X97663Y-545037D01*
X103645Y-555396D01*
X112103Y-563855D01*
X122463Y-569837D01*
X134019Y-572933D01*
X145981D01*
X157536Y-569837D01*
X167897Y-563855D01*
X176355Y-555396D01*
X182337Y-545037D01*
X185433Y-533481D01*
Y-521519D01*
X182337Y-509964D01*
X176355Y-499603D01*
X167897Y-491145D01*
X157536Y-485163D01*
X145981Y-482067D01*
D02*
G37*
G36*
X45981D02*
X34019D01*
X22463Y-485163D01*
X12104Y-491145D01*
X3645Y-499603D01*
X-2337Y-509964D01*
X-5433Y-521519D01*
Y-533481D01*
X-2337Y-545037D01*
X3645Y-555396D01*
X12104Y-563855D01*
X22463Y-569837D01*
X34019Y-572933D01*
X45981D01*
X57536Y-569837D01*
X67897Y-563855D01*
X76355Y-555396D01*
X82337Y-545037D01*
X85433Y-533481D01*
Y-521519D01*
X82337Y-509964D01*
X76355Y-499603D01*
X67897Y-491145D01*
X57536Y-485163D01*
X45981Y-482067D01*
D02*
G37*
G36*
X-54019D02*
X-65981D01*
X-77537Y-485163D01*
X-87897Y-491145D01*
X-96355Y-499603D01*
X-102337Y-509964D01*
X-105433Y-521519D01*
Y-533481D01*
X-102337Y-545037D01*
X-96355Y-555396D01*
X-87897Y-563855D01*
X-77537Y-569837D01*
X-65981Y-572933D01*
X-54019D01*
X-42464Y-569837D01*
X-32103Y-563855D01*
X-23645Y-555396D01*
X-17663Y-545037D01*
X-14567Y-533481D01*
Y-521519D01*
X-17663Y-509964D01*
X-23645Y-499603D01*
X-32103Y-491145D01*
X-42464Y-485163D01*
X-54019Y-482067D01*
D02*
G37*
G36*
X-154019D02*
X-165981D01*
X-177536Y-485163D01*
X-187897Y-491145D01*
X-196355Y-499603D01*
X-202337Y-509964D01*
X-205433Y-521519D01*
Y-533481D01*
X-202337Y-545037D01*
X-196355Y-555396D01*
X-187897Y-563855D01*
X-177536Y-569837D01*
X-165981Y-572933D01*
X-154019D01*
X-142464Y-569837D01*
X-132103Y-563855D01*
X-123645Y-555396D01*
X-117663Y-545037D01*
X-114567Y-533481D01*
Y-521519D01*
X-117663Y-509964D01*
X-123645Y-499603D01*
X-132103Y-491145D01*
X-142464Y-485163D01*
X-154019Y-482067D01*
D02*
G37*
G36*
X-254019D02*
X-265981D01*
X-277536Y-485163D01*
X-287897Y-491145D01*
X-296355Y-499603D01*
X-302337Y-509964D01*
X-305433Y-521519D01*
Y-533481D01*
X-302337Y-545037D01*
X-296355Y-555396D01*
X-287897Y-563855D01*
X-277536Y-569837D01*
X-265981Y-572933D01*
X-254019D01*
X-242464Y-569837D01*
X-232103Y-563855D01*
X-223645Y-555396D01*
X-217663Y-545037D01*
X-214567Y-533481D01*
Y-521519D01*
X-217663Y-509964D01*
X-223645Y-499603D01*
X-232103Y-491145D01*
X-242464Y-485163D01*
X-254019Y-482067D01*
D02*
G37*
G36*
X-354019D02*
X-365981D01*
X-377536Y-485163D01*
X-387897Y-491145D01*
X-396355Y-499603D01*
X-402337Y-509964D01*
X-405433Y-521519D01*
Y-533481D01*
X-402337Y-545037D01*
X-396355Y-555396D01*
X-387897Y-563855D01*
X-377536Y-569837D01*
X-365981Y-572933D01*
X-354019D01*
X-342464Y-569837D01*
X-332103Y-563855D01*
X-323645Y-555396D01*
X-317663Y-545037D01*
X-314567Y-533481D01*
Y-521519D01*
X-317663Y-509964D01*
X-323645Y-499603D01*
X-332103Y-491145D01*
X-342464Y-485163D01*
X-354019Y-482067D01*
D02*
G37*
G36*
X-454019D02*
X-465981D01*
X-477536Y-485163D01*
X-487897Y-491145D01*
X-496355Y-499603D01*
X-502337Y-509964D01*
X-505433Y-521519D01*
Y-533481D01*
X-502337Y-545037D01*
X-496355Y-555396D01*
X-487897Y-563855D01*
X-477536Y-569837D01*
X-465981Y-572933D01*
X-454019D01*
X-442464Y-569837D01*
X-432103Y-563855D01*
X-423645Y-555396D01*
X-417663Y-545037D01*
X-414567Y-533481D01*
Y-521519D01*
X-417663Y-509964D01*
X-423645Y-499603D01*
X-432103Y-491145D01*
X-442464Y-485163D01*
X-454019Y-482067D01*
D02*
G37*
G36*
X-554019D02*
X-565981D01*
X-577537Y-485163D01*
X-587896Y-491145D01*
X-596355Y-499603D01*
X-602337Y-509964D01*
X-605433Y-521519D01*
Y-533481D01*
X-602337Y-545037D01*
X-596355Y-555396D01*
X-587896Y-563855D01*
X-577537Y-569837D01*
X-565981Y-572933D01*
X-554019D01*
X-542463Y-569837D01*
X-532104Y-563855D01*
X-523645Y-555396D01*
X-517663Y-545037D01*
X-514567Y-533481D01*
Y-521519D01*
X-517663Y-509964D01*
X-523645Y-499603D01*
X-532104Y-491145D01*
X-542463Y-485163D01*
X-554019Y-482067D01*
D02*
G37*
G36*
X-719168Y-443287D02*
X-730832D01*
X-742272Y-445563D01*
X-753048Y-450026D01*
X-762746Y-456507D01*
X-770993Y-464754D01*
X-777473Y-474452D01*
X-781937Y-485228D01*
X-784213Y-496668D01*
Y-508332D01*
X-781937Y-519772D01*
X-777473Y-530548D01*
X-770993Y-540246D01*
X-762746Y-548493D01*
X-753048Y-554973D01*
X-742272Y-559437D01*
X-739417Y-560005D01*
X-737443Y-565495D01*
X-740438Y-572726D01*
Y-582274D01*
X-736785Y-591095D01*
X-730033Y-597846D01*
X-721212Y-601500D01*
X-711664D01*
X-702843Y-597846D01*
X-696092Y-591095D01*
X-692438Y-582274D01*
Y-572726D01*
X-696092Y-563905D01*
X-699478Y-560519D01*
X-698502Y-555615D01*
X-696952Y-554973D01*
X-687254Y-548493D01*
X-679007Y-540246D01*
X-672527Y-530548D01*
X-668063Y-519772D01*
X-665787Y-508332D01*
Y-496668D01*
X-668063Y-485228D01*
X-672527Y-474452D01*
X-679007Y-464754D01*
X-687254Y-456507D01*
X-696952Y-450026D01*
X-707728Y-445563D01*
X-719168Y-443287D01*
D02*
G37*
G36*
X-625226Y-566000D02*
X-634774D01*
X-643595Y-569654D01*
X-650346Y-576405D01*
X-654000Y-585226D01*
Y-594774D01*
X-650346Y-603595D01*
X-643595Y-610346D01*
X-634774Y-614000D01*
X-625226D01*
X-616405Y-610346D01*
X-609654Y-603595D01*
X-606000Y-594774D01*
Y-585226D01*
X-609654Y-576405D01*
X-616405Y-569654D01*
X-625226Y-566000D01*
D02*
G37*
G36*
X-1168206Y-576000D02*
X-1177754D01*
X-1186575Y-579654D01*
X-1193326Y-586405D01*
X-1196980Y-595226D01*
Y-604774D01*
X-1193326Y-613595D01*
X-1186575Y-620346D01*
X-1177754Y-624000D01*
X-1168206D01*
X-1159385Y-620346D01*
X-1152634Y-613595D01*
X-1148980Y-604774D01*
Y-595226D01*
X-1152634Y-586405D01*
X-1159385Y-579654D01*
X-1168206Y-576000D01*
D02*
G37*
G36*
X894294Y-578500D02*
X884746D01*
X875925Y-582154D01*
X869174Y-588905D01*
X865520Y-597726D01*
Y-607274D01*
X869174Y-616095D01*
X875925Y-622846D01*
X884746Y-626500D01*
X894294D01*
X903115Y-622846D01*
X909866Y-616095D01*
X913520Y-607274D01*
Y-597726D01*
X909866Y-588905D01*
X903115Y-582154D01*
X894294Y-578500D01*
D02*
G37*
G36*
X621694Y-616000D02*
X612146D01*
X603325Y-619654D01*
X596574Y-626405D01*
X592920Y-635226D01*
Y-644774D01*
X596574Y-653595D01*
X603325Y-660346D01*
X612146Y-664000D01*
X621694D01*
X630515Y-660346D01*
X637266Y-653595D01*
X640920Y-644774D01*
Y-635226D01*
X637266Y-626405D01*
X630515Y-619654D01*
X621694Y-616000D01*
D02*
G37*
G36*
X281878D02*
X272330D01*
X263509Y-619654D01*
X256758Y-626405D01*
X253104Y-635226D01*
Y-644774D01*
X256758Y-653595D01*
X263509Y-660346D01*
X272330Y-664000D01*
X281878D01*
X290699Y-660346D01*
X297450Y-653595D01*
X301104Y-644774D01*
Y-635226D01*
X297450Y-626405D01*
X290699Y-619654D01*
X281878Y-616000D01*
D02*
G37*
G36*
X-61872D02*
X-71420D01*
X-80241Y-619654D01*
X-86992Y-626405D01*
X-90646Y-635226D01*
Y-644774D01*
X-86992Y-653595D01*
X-80241Y-660346D01*
X-71420Y-664000D01*
X-61872D01*
X-53051Y-660346D01*
X-46300Y-653595D01*
X-42646Y-644774D01*
Y-635226D01*
X-46300Y-626405D01*
X-53051Y-619654D01*
X-61872Y-616000D01*
D02*
G37*
G36*
X-409556D02*
X-419104D01*
X-427925Y-619654D01*
X-434676Y-626405D01*
X-438330Y-635226D01*
Y-644774D01*
X-434676Y-653595D01*
X-427925Y-660346D01*
X-419104Y-664000D01*
X-409556D01*
X-400735Y-660346D01*
X-393984Y-653595D01*
X-390330Y-644774D01*
Y-635226D01*
X-393984Y-626405D01*
X-400735Y-619654D01*
X-409556Y-616000D01*
D02*
G37*
G36*
X-749372D02*
X-758920D01*
X-767741Y-619654D01*
X-774492Y-626405D01*
X-778146Y-635226D01*
Y-644774D01*
X-774492Y-653595D01*
X-767741Y-660346D01*
X-758920Y-664000D01*
X-749372D01*
X-740551Y-660346D01*
X-733800Y-653595D01*
X-730146Y-644774D01*
Y-635226D01*
X-733800Y-626405D01*
X-740551Y-619654D01*
X-749372Y-616000D01*
D02*
G37*
G36*
X660856Y-691550D02*
X651308D01*
X642487Y-695204D01*
X635736Y-701955D01*
X632082Y-710776D01*
Y-720324D01*
X635736Y-729145D01*
X642487Y-735896D01*
X651308Y-739550D01*
X660856D01*
X669677Y-735896D01*
X676428Y-729145D01*
X680082Y-720324D01*
Y-710776D01*
X676428Y-701955D01*
X669677Y-695204D01*
X660856Y-691550D01*
D02*
G37*
G36*
X-455226D02*
X-464774D01*
X-473595Y-695204D01*
X-480346Y-701955D01*
X-484000Y-710776D01*
Y-720324D01*
X-480346Y-729145D01*
X-473595Y-735896D01*
X-464774Y-739550D01*
X-455226D01*
X-446405Y-735896D01*
X-439654Y-729145D01*
X-436000Y-720324D01*
Y-710776D01*
X-439654Y-701955D01*
X-446405Y-695204D01*
X-455226Y-691550D01*
D02*
G37*
G36*
X-795226D02*
X-804774D01*
X-813595Y-695204D01*
X-820346Y-701955D01*
X-824000Y-710776D01*
Y-720324D01*
X-820346Y-729145D01*
X-813595Y-735896D01*
X-804774Y-739550D01*
X-795226D01*
X-786405Y-735896D01*
X-779654Y-729145D01*
X-776000Y-720324D01*
Y-710776D01*
X-779654Y-701955D01*
X-786405Y-695204D01*
X-795226Y-691550D01*
D02*
G37*
G36*
X229774Y-692000D02*
X220226D01*
X211405Y-695654D01*
X204654Y-702405D01*
X201000Y-711226D01*
Y-720774D01*
X204654Y-729595D01*
X211405Y-736346D01*
X220226Y-740000D01*
X229774D01*
X238595Y-736346D01*
X245346Y-729595D01*
X249000Y-720774D01*
Y-711226D01*
X245346Y-702405D01*
X238595Y-695654D01*
X229774Y-692000D01*
D02*
G37*
G36*
X-115856D02*
X-125404D01*
X-134225Y-695654D01*
X-140976Y-702405D01*
X-144630Y-711226D01*
Y-720774D01*
X-140976Y-729595D01*
X-134225Y-736346D01*
X-125404Y-740000D01*
X-115856D01*
X-107035Y-736346D01*
X-100284Y-729595D01*
X-96630Y-720774D01*
Y-711226D01*
X-100284Y-702405D01*
X-107035Y-695654D01*
X-115856Y-692000D01*
D02*
G37*
G36*
X814774Y-745685D02*
X805226D01*
X796405Y-749339D01*
X789654Y-756090D01*
X786000Y-764911D01*
Y-774459D01*
X789654Y-783280D01*
X796405Y-790031D01*
X805226Y-793685D01*
X814774D01*
X823595Y-790031D01*
X830346Y-783280D01*
X834000Y-774459D01*
Y-764911D01*
X830346Y-756090D01*
X823595Y-749339D01*
X814774Y-745685D01*
D02*
G37*
G36*
X-885226Y-766000D02*
X-894774D01*
X-903595Y-769654D01*
X-910346Y-776405D01*
X-914000Y-785226D01*
Y-794774D01*
X-910346Y-803595D01*
X-903595Y-810346D01*
X-894774Y-814000D01*
X-885226D01*
X-876405Y-810346D01*
X-869654Y-803595D01*
X-866000Y-794774D01*
Y-785226D01*
X-869654Y-776405D01*
X-876405Y-769654D01*
X-885226Y-766000D01*
D02*
G37*
G36*
X514774Y-836000D02*
X505226D01*
X496405Y-839654D01*
X489654Y-846405D01*
X486000Y-855226D01*
Y-864774D01*
X489654Y-873595D01*
X496405Y-880346D01*
X505226Y-884000D01*
X514774D01*
X523595Y-880346D01*
X530346Y-873595D01*
X534000Y-864774D01*
Y-855226D01*
X530346Y-846405D01*
X523595Y-839654D01*
X514774Y-836000D01*
D02*
G37*
G36*
X1177754Y-876000D02*
X1168206D01*
X1159385Y-879654D01*
X1152634Y-886405D01*
X1148980Y-895226D01*
Y-904774D01*
X1152634Y-913595D01*
X1159385Y-920346D01*
X1168206Y-924000D01*
X1177754D01*
X1186575Y-920346D01*
X1193326Y-913595D01*
X1196980Y-904774D01*
Y-895226D01*
X1193326Y-886405D01*
X1186575Y-879654D01*
X1177754Y-876000D01*
D02*
G37*
G36*
X155982Y-1004567D02*
X144019D01*
X132464Y-1007663D01*
X122104Y-1013645D01*
X113645Y-1022104D01*
X107663Y-1032464D01*
X104567Y-1044019D01*
Y-1055981D01*
X107663Y-1067536D01*
X113645Y-1077897D01*
X122104Y-1086355D01*
X132464Y-1092337D01*
X144019Y-1095433D01*
X155982D01*
X167537Y-1092337D01*
X177897Y-1086355D01*
X186356Y-1077897D01*
X192337Y-1067536D01*
X195433Y-1055981D01*
Y-1044019D01*
X192337Y-1032464D01*
X186356Y-1022104D01*
X177897Y-1013645D01*
X167537Y-1007663D01*
X155982Y-1004567D01*
D02*
G37*
G36*
X55981D02*
X44019D01*
X32464Y-1007663D01*
X22104Y-1013645D01*
X13645Y-1022104D01*
X7663Y-1032464D01*
X4567Y-1044019D01*
Y-1055981D01*
X7663Y-1067536D01*
X13645Y-1077897D01*
X22104Y-1086355D01*
X32464Y-1092337D01*
X44019Y-1095433D01*
X55981D01*
X67537Y-1092337D01*
X77897Y-1086355D01*
X86355Y-1077897D01*
X92337Y-1067536D01*
X95433Y-1055981D01*
Y-1044019D01*
X92337Y-1032464D01*
X86355Y-1022104D01*
X77897Y-1013645D01*
X67537Y-1007663D01*
X55981Y-1004567D01*
D02*
G37*
G36*
X-44019D02*
X-55981D01*
X-67536Y-1007663D01*
X-77896Y-1013645D01*
X-86355Y-1022104D01*
X-92337Y-1032464D01*
X-95433Y-1044019D01*
Y-1055981D01*
X-92337Y-1067536D01*
X-86355Y-1077897D01*
X-77896Y-1086355D01*
X-67536Y-1092337D01*
X-55981Y-1095433D01*
X-44019D01*
X-32463Y-1092337D01*
X-22103Y-1086355D01*
X-13645Y-1077897D01*
X-7663Y-1067536D01*
X-4567Y-1055981D01*
Y-1044019D01*
X-7663Y-1032464D01*
X-13645Y-1022104D01*
X-22103Y-1013645D01*
X-32463Y-1007663D01*
X-44019Y-1004567D01*
D02*
G37*
G36*
X-144018D02*
X-155981D01*
X-167536Y-1007663D01*
X-177896Y-1013645D01*
X-186355Y-1022104D01*
X-192337Y-1032464D01*
X-195433Y-1044019D01*
Y-1055981D01*
X-192337Y-1067536D01*
X-186355Y-1077897D01*
X-177896Y-1086355D01*
X-167536Y-1092337D01*
X-155981Y-1095433D01*
X-144018D01*
X-132463Y-1092337D01*
X-122103Y-1086355D01*
X-113644Y-1077897D01*
X-107663Y-1067536D01*
X-104567Y-1055981D01*
Y-1044019D01*
X-107663Y-1032464D01*
X-113644Y-1022104D01*
X-122103Y-1013645D01*
X-132463Y-1007663D01*
X-144018Y-1004567D01*
D02*
G37*
G36*
X-244019D02*
X-255981D01*
X-267536Y-1007663D01*
X-277897Y-1013645D01*
X-286355Y-1022104D01*
X-292337Y-1032464D01*
X-295433Y-1044019D01*
Y-1055981D01*
X-292337Y-1067536D01*
X-286355Y-1077897D01*
X-277897Y-1086355D01*
X-267536Y-1092337D01*
X-255981Y-1095433D01*
X-244019D01*
X-232464Y-1092337D01*
X-222103Y-1086355D01*
X-213645Y-1077897D01*
X-207663Y-1067536D01*
X-204567Y-1055981D01*
Y-1044019D01*
X-207663Y-1032464D01*
X-213645Y-1022104D01*
X-222103Y-1013645D01*
X-232464Y-1007663D01*
X-244019Y-1004567D01*
D02*
G37*
G36*
X276575Y-1004197D02*
X223425D01*
X216067Y-1005661D01*
X209829Y-1009829D01*
X205661Y-1016067D01*
X204198Y-1023425D01*
Y-1076575D01*
X205661Y-1083933D01*
X209829Y-1090171D01*
X216067Y-1094339D01*
X223425Y-1095803D01*
X276575D01*
X283933Y-1094339D01*
X290171Y-1090171D01*
X294339Y-1083933D01*
X295803Y-1076575D01*
Y-1023425D01*
X294339Y-1016067D01*
X290171Y-1009829D01*
X283933Y-1005661D01*
X276575Y-1004197D01*
D02*
G37*
%LPD*%
D51*
X-1475000Y919409D02*
D03*
X-1375000D02*
D03*
D52*
X-1575000D02*
D03*
D53*
X1540000Y830000D02*
D03*
X1340000D02*
D03*
Y1030000D02*
D03*
X1540000D02*
D03*
D54*
X-250000Y-1050000D02*
D03*
X-150000D02*
D03*
X-50000D02*
D03*
X50000D02*
D03*
X150000D02*
D03*
X340000Y-527500D02*
D03*
X-60000D02*
D03*
X-260000D02*
D03*
X-460000D02*
D03*
X140000D02*
D03*
X40000D02*
D03*
X240000D02*
D03*
X-360000D02*
D03*
X-560000D02*
D03*
X-160000D02*
D03*
X440000D02*
D03*
D55*
X250000Y-1050000D02*
D03*
X540000Y-527500D02*
D03*
D58*
X-1099684Y1055000D02*
D03*
X-1034720Y1066810D02*
D03*
D59*
X1139060Y1055000D02*
D03*
X1020940D02*
D03*
D60*
X-630000Y-590000D02*
D03*
X-716438Y-577500D02*
D03*
X810000Y-769685D02*
D03*
X550000Y-680000D02*
D03*
X-823189Y470000D02*
D03*
Y269485D02*
D03*
X510000Y-860000D02*
D03*
X-360777Y198789D02*
D03*
X-391106Y213976D02*
D03*
X-550000Y-670000D02*
D03*
X-890000Y-790000D02*
D03*
X-1711181Y649189D02*
D03*
X-1620096Y786526D02*
D03*
X-420000Y450000D02*
D03*
Y550000D02*
D03*
X-1650000Y400000D02*
D03*
X-1675000Y425900D02*
D03*
X-909252Y451181D02*
D03*
X-1228500Y522685D02*
D03*
X-967520Y312800D02*
D03*
X-962795Y451181D02*
D03*
X-439728Y800000D02*
D03*
X-1170770Y0D02*
D03*
X-1410000Y595118D02*
D03*
X-1260000Y670000D02*
D03*
X-1579685Y642362D02*
D03*
X-997320Y860000D02*
D03*
X-1140000D02*
D03*
X350000Y250000D02*
D03*
X-1160000Y75000D02*
D03*
X-780118Y860000D02*
D03*
X100000Y19690D02*
D03*
X-433347Y301182D02*
D03*
X-740000Y900000D02*
D03*
X-545670Y700000D02*
D03*
Y650000D02*
D03*
Y596760D02*
D03*
X-480000Y940000D02*
D03*
X-1200000Y1020000D02*
D03*
X-1020000Y650000D02*
D03*
Y575000D02*
D03*
X-512796Y-220482D02*
D03*
X-587746Y-640000D02*
D03*
X-247746D02*
D03*
X792254D02*
D03*
X442254D02*
D03*
X102254D02*
D03*
X1168580Y930000D02*
D03*
X-250000Y791043D02*
D03*
X-100000D02*
D03*
X-175000Y840000D02*
D03*
X1737008Y875000D02*
D03*
X1760000Y698685D02*
D03*
X1701870Y650000D02*
D03*
X1760000Y738326D02*
D03*
X110000Y910568D02*
D03*
X290000Y30000D02*
D03*
X-19690Y26890D02*
D03*
X50000Y125000D02*
D03*
X-53150D02*
D03*
X-290000Y-176102D02*
D03*
Y-44606D02*
D03*
X-381496Y-308090D02*
D03*
X1172980Y-900000D02*
D03*
X-1213390Y-50000D02*
D03*
X-1613390Y175000D02*
D03*
X-1450000Y33270D02*
D03*
X-1850000Y258270D02*
D03*
X-1490000Y300000D02*
D03*
X-1386610Y-50000D02*
D03*
X-436024Y249990D02*
D03*
X-241168Y156496D02*
D03*
X-160000D02*
D03*
X-350000Y324686D02*
D03*
X-450000Y900000D02*
D03*
Y1000000D02*
D03*
X1240963Y529330D02*
D03*
X225000Y-716000D02*
D03*
X277104Y-640000D02*
D03*
X-66646D02*
D03*
X-460000Y-715550D02*
D03*
X-120630Y-716000D02*
D03*
X-414330Y-640000D02*
D03*
X-754146D02*
D03*
X-800000Y-715550D02*
D03*
X656082D02*
D03*
X616920Y-640000D02*
D03*
X889520Y-602500D02*
D03*
X1270000Y-675000D02*
D03*
X-1270000D02*
D03*
X-1172980Y-600000D02*
D03*
X-450000Y50000D02*
D03*
X-487204D02*
D03*
X-589566D02*
D03*
X-436024Y213976D02*
D03*
X50000Y196850D02*
D03*
X-53150D02*
D03*
X-275000Y-250000D02*
D03*
X50000Y-221850D02*
D03*
X-53150D02*
D03*
X-160000Y93504D02*
D03*
Y-181496D02*
D03*
X-100000Y-39370D02*
D03*
X100000Y-19690D02*
D03*
X450000Y900000D02*
D03*
Y800000D02*
D03*
D61*
X725000Y1022500D02*
D03*
X-725000D02*
D03*
Y-502500D02*
D03*
X725000D02*
D03*
%TF.MD5,129e276d215f1d32342cc4014265ec29*%
M02*
