%TF.GenerationSoftware,Altium Limited,Altium Designer,23.8.1 (32)*%
G04 Layer_Color=16711935*
%FSLAX26Y26*%
%MOIN*%
%TF.SameCoordinates,6B68F3FB-407B-423E-831D-AB1AF3CCE0D2*%
%TF.FilePolarity,Negative*%
%TF.FileFunction,Soldermask,Bot*%
%TF.Part,Single*%
G01*
G75*
%TA.AperFunction,ComponentPad*%
%ADD51C,0.049213*%
%ADD52R,0.049213X0.049213*%
%TA.AperFunction,ViaPad*%
%ADD60C,0.028000*%
%ADD61C,0.098425*%
%TA.AperFunction,SMDPad,CuDef*%
%ADD86R,0.045370X0.043402*%
%ADD95R,0.029000X0.045370*%
%TA.AperFunction,ComponentPad*%
%ADD103C,0.105000*%
%ADD104C,0.075866*%
G04:AMPARAMS|DCode=105|XSize=75.866mil|YSize=75.866mil|CornerRadius=11.358mil|HoleSize=0mil|Usage=FLASHONLY|Rotation=180.000|XOffset=0mil|YOffset=0mil|HoleType=Round|Shape=RoundedRectangle|*
%AMROUNDEDRECTD105*
21,1,0.075866,0.053150,0,0,180.0*
21,1,0.053150,0.075866,0,0,180.0*
1,1,0.022716,-0.026575,0.026575*
1,1,0.022716,0.026575,0.026575*
1,1,0.022716,0.026575,-0.026575*
1,1,0.022716,-0.026575,-0.026575*
%
%ADD105ROUNDEDRECTD105*%
%ADD106O,0.123120X0.064060*%
%ADD107O,0.064060X0.123120*%
%ADD108C,0.044370*%
%ADD109C,0.040430*%
%TA.AperFunction,SMDPad,CuDef*%
%ADD110R,0.083740X0.052240*%
%ADD111R,0.052240X0.083740*%
%ADD112R,0.044370X0.038460*%
D51*
X-1475000Y919409D02*
D03*
X-1375000D02*
D03*
D52*
X-1575000D02*
D03*
D60*
X550000Y-680000D02*
D03*
D61*
X725000Y1022500D02*
D03*
X-725000D02*
D03*
Y-502500D02*
D03*
X725000D02*
D03*
D86*
X-1270000Y-781496D02*
D03*
X1270000D02*
D03*
X-1110000Y182992D02*
D03*
X-1490000Y411496D02*
D03*
X-1270000Y-718504D02*
D03*
X-1110000Y120000D02*
D03*
X-1490000Y348504D02*
D03*
X1270000Y-718504D02*
D03*
D95*
X658258Y-640000D02*
D03*
X314508D02*
D03*
X-29242D02*
D03*
X-372992D02*
D03*
X-716742D02*
D03*
X-653750D02*
D03*
X721250D02*
D03*
X-310000D02*
D03*
X377500D02*
D03*
X33750D02*
D03*
D103*
X1540000Y830000D02*
D03*
X1340000D02*
D03*
Y1030000D02*
D03*
X1540000D02*
D03*
D104*
X-250000Y-1050000D02*
D03*
X-150000D02*
D03*
X-50000D02*
D03*
X50000D02*
D03*
X150000D02*
D03*
X340000Y-527500D02*
D03*
X-60000D02*
D03*
X-260000D02*
D03*
X-460000D02*
D03*
X140000D02*
D03*
X40000D02*
D03*
X240000D02*
D03*
X-360000D02*
D03*
X-560000D02*
D03*
X-160000D02*
D03*
X440000D02*
D03*
D105*
X250000Y-1050000D02*
D03*
X540000Y-527500D02*
D03*
D106*
X1734330Y96260D02*
D03*
Y175000D02*
D03*
Y253740D02*
D03*
D107*
X1301260Y529330D02*
D03*
X1380000D02*
D03*
X1458740D02*
D03*
D108*
X-1099684Y1055000D02*
D03*
X-1034720Y1066810D02*
D03*
D109*
X1139060Y1055000D02*
D03*
X1020940D02*
D03*
D110*
X-889520Y-836610D02*
D03*
X-1172980D02*
D03*
X1172980D02*
D03*
X889520D02*
D03*
Y-663390D02*
D03*
X1172980D02*
D03*
X-1172980D02*
D03*
X-889520D02*
D03*
D111*
X-1213390Y316730D02*
D03*
Y33270D02*
D03*
X-1613390Y541730D02*
D03*
Y258270D02*
D03*
X-1786610Y541730D02*
D03*
X-1386610Y316730D02*
D03*
Y33270D02*
D03*
X-1786610Y258270D02*
D03*
D112*
X618600Y-715550D02*
D03*
X274850D02*
D03*
X-68900D02*
D03*
X-412650D02*
D03*
X-756400D02*
D03*
X756400D02*
D03*
X618600Y-784450D02*
D03*
X756400D02*
D03*
X274850D02*
D03*
X412650D02*
D03*
Y-715550D02*
D03*
X-412650Y-784450D02*
D03*
X-274850D02*
D03*
Y-715550D02*
D03*
X-756400Y-784450D02*
D03*
X-618600D02*
D03*
Y-715550D02*
D03*
X-68900Y-784450D02*
D03*
X68900D02*
D03*
Y-715550D02*
D03*
%TF.MD5,092fd6a0ac1c46dac7cc3c15b8916e6d*%
M02*
